<svg id="_0189_facebook_ad" xmlns="http://www.w3.org/2000/svg" xmlns:xlink="http://www.w3.org/1999/xlink" viewBox="0 0 500 500" data-imageid="facebook-ad-99" imageName="Facebook Ad" class="illustrations_image" style="width: 145px;"><defs><style>.cls-1_facebook-ad-99{fill:url(#linear-gradient);}.cls-1_facebook-ad-99,.cls-2_facebook-ad-99,.cls-3_facebook-ad-99,.cls-4_facebook-ad-99,.cls-5_facebook-ad-99,.cls-6_facebook-ad-99,.cls-7_facebook-ad-99,.cls-8_facebook-ad-99,.cls-9_facebook-ad-99,.cls-10_facebook-ad-99,.cls-11_facebook-ad-99,.cls-12_facebook-ad-99,.cls-13_facebook-ad-99,.cls-14_facebook-ad-99,.cls-15_facebook-ad-99{stroke-width:0px;}.cls-2_facebook-ad-99{fill:url(#linear-gradient-10-facebook-ad-99);}.cls-16_facebook-ad-99,.cls-11_facebook-ad-99{opacity:.24;}.cls-3_facebook-ad-99{fill:url(#linear-gradient-4-facebook-ad-99);}.cls-4_facebook-ad-99{fill:url(#linear-gradient-2-facebook-ad-99);}.cls-5_facebook-ad-99{fill:url(#linear-gradient-3-facebook-ad-99);}.cls-6_facebook-ad-99{fill:url(#linear-gradient-8-facebook-ad-99);}.cls-7_facebook-ad-99{fill:url(#linear-gradient-9-facebook-ad-99);}.cls-8_facebook-ad-99{fill:url(#linear-gradient-7-facebook-ad-99);}.cls-9_facebook-ad-99{fill:url(#linear-gradient-5-facebook-ad-99);}.cls-10_facebook-ad-99{fill:url(#linear-gradient-6-facebook-ad-99);}.cls-11_facebook-ad-99{isolation:isolate;}.cls-11_facebook-ad-99,.cls-15_facebook-ad-99{fill:#68e1fd;}.cls-12_facebook-ad-99{fill:#231f20;}.cls-13_facebook-ad-99{fill:#fff;}.cls-14_facebook-ad-99{fill:#ffaa71;}</style><linearGradient id="linear-gradient-facebook-ad-99" x1="568.85" y1="2146.95" x2="568.39" y2="2112.76" gradientTransform="translate(-471 2272.74) scale(1 -1)" gradientUnits="userSpaceOnUse"><stop offset=".12" stop-color="#010101" stop-opacity="0"/><stop offset=".95" stop-color="#010101"/></linearGradient><linearGradient id="linear-gradient-2-facebook-ad-99" x1="716.34" y1="2130.3" x2="716.34" y2="1965.33" gradientTransform="translate(-474.02 2244.59) scale(1 -1)" xlink:href="#linear-gradient-facebook-ad-99"/><linearGradient id="linear-gradient-3-facebook-ad-99" x1="580.48" y1="2142.12" x2="580.01" y2="2107.94" xlink:href="#linear-gradient-facebook-ad-99"/><linearGradient id="linear-gradient-4-facebook-ad-99" x1="592.11" y1="2142.12" x2="591.64" y2="2107.94" xlink:href="#linear-gradient-facebook-ad-99"/><linearGradient id="linear-gradient-5-facebook-ad-99" x1="893.17" y1="1856.07" x2="909.3" y2="1980.11" gradientTransform="translate(-474.02 2244.59) scale(1 -1)" xlink:href="#linear-gradient-facebook-ad-99"/><linearGradient id="linear-gradient-6-facebook-ad-99" x1="881.18" y1="1927.7" x2="975.15" y2="1997.02" gradientTransform="translate(-474.02 2244.59) scale(1 -1)" xlink:href="#linear-gradient-facebook-ad-99"/><linearGradient id="linear-gradient-7-facebook-ad-99" x1="905.65" y1="2085.95" x2="915.42" y2="2089.05" gradientTransform="translate(-474.02 2244.59) scale(1 -1)" xlink:href="#linear-gradient-facebook-ad-99"/><linearGradient id="linear-gradient-8-facebook-ad-99" x1="882.72" y1="2006.44" x2="938.08" y2="2077.14" gradientTransform="translate(-474.02 2244.59) scale(1 -1)" xlink:href="#linear-gradient-facebook-ad-99"/><linearGradient id="linear-gradient-9-facebook-ad-99" x1="899.21" y1="2063.18" x2="886.58" y2="2095.67" gradientTransform="translate(-474.02 2244.59) scale(1 -1)" gradientUnits="userSpaceOnUse"><stop offset="0" stop-color="#231f20" stop-opacity="0"/><stop offset="1" stop-color="#231f20"/></linearGradient><linearGradient id="linear-gradient-10-facebook-ad-99" x1="863.2" y1="2086.18" x2="929.88" y2="2055.8" gradientTransform="translate(-474.02 2244.59) scale(1 -1)" xlink:href="#linear-gradient-facebook-ad-99"/></defs><path id="background_facebook-ad-99" class="cls-11_facebook-ad-99 targetColor" d="M375.04,438.99c26.1-1.86,52.7-4.96,76.19-16.47,12.02-5.89,28.62-16.3,34.48-28.98,6.07-13.14,8.98-29.98,7.4-44.35-1.95-17.75-10.26-34.4-11.66-52.2-1.45-18.48,4.62-36.6,8.41-54.74,2.33-11.16,3.81-22.5,4.42-33.89.39-7.23.43-14.51-.41-21.7-4.28-36.52-29.83-61.29-62.01-75.43l-112.67-49.57c-16.3-7.17-32.78-14.39-50.28-17.66-20.89-3.94-42.37-2.02-63.53-.1-25.97,2.3-53.02,5.02-75.13,18.82-12.25,7.63-22.16,18.25-31.68,28.95-9.07,10.2-19.58,19.47-25.46,31.71-12.63,26.29-35.3,45.84-49.76,70.97C9.09,219.09-.37,255.69,5.82,284.28c3.05,14.08,11.86,28.09,16.76,41.93,5.23,14.79,9.22,30.15,9.61,45.91.71,28.88-2.48,51.9,29.62,55.37,33.33,3.6,67.3,5.57,100.8,8.18,70.63,5.47,141.67,8.37,212.43,3.33Z" style="fill: rgb(0, 204, 143);"/><g id="screen_facebook-ad-99"><circle class="cls-1_facebook-ad-99" cx="97.66" cy="140" r="3.49"/><path class="cls-11_facebook-ad-99 targetColor" d="M54.03,394.84c2.64,8.91,14.19,10.83,23.47,11.13l275.75,8.71c19.49.61,39.07,1.23,58.44-1.02,20.59-2.41,40.68-8.02,59.54-16.64,3.02-1.39,6.34-3.22,7.16-6.45,1.34-5.2-4.55-9.21-9.65-10.89-15.71-5.11-32.62-4.66-49.13-4.21-105.26,2.87-212.32,7.61-317.49,2-12.23-.65-55.54-7.74-48.09,17.37Z" style="fill: rgb(0, 204, 143);"/><path class="cls-15_facebook-ad-99 targetColor" d="M403.89,152.91v1.06H80.75v-1.06c0-10.03,8.12-18.17,18.16-18.17h286.82c10.03,0,18.17,8.12,18.17,18.16v.02Z" style="fill: rgb(0, 204, 143);"/><path class="cls-4_facebook-ad-99" d="M403.89,152.91v1.06H80.75v-1.06c0-10.03,8.12-18.17,18.16-18.17h286.82c10.03,0,18.17,8.12,18.17,18.16v.02Z"/><rect class="cls-13_facebook-ad-99" x="80.75" y="153.99" width="323.14" height="233.8"/><rect class="cls-13_facebook-ad-99" x="93.78" y="172.59" width="300.79" height="209.01"/><circle class="cls-5_facebook-ad-99" cx="109.29" cy="144.83" r="3.49"/><circle class="cls-3_facebook-ad-99" cx="120.92" cy="144.83" r="3.49"/><rect class="cls-11_facebook-ad-99 targetColor" x="95.33" y="168.56" width="51.17" height="218.62" style="fill: rgb(0, 204, 143);"/><rect class="cls-11_facebook-ad-99 targetColor" x="311.78" y="168.56" width="70.75" height="218.62" style="fill: rgb(0, 204, 143);"/><rect class="cls-11_facebook-ad-99 targetColor" x="152.39" y="168.56" width="153.15" height="218.62" style="fill: rgb(0, 204, 143);"/><rect class="cls-11_facebook-ad-99 targetColor" x="159.36" y="199.95" width="145.63" height="93.04" style="fill: rgb(0, 204, 143);"/><rect class="cls-11_facebook-ad-99 targetColor" x="320.55" y="189.51" width="60.5" height="42.51" style="fill: rgb(0, 204, 143);"/><rect class="cls-13_facebook-ad-99" x="99.05" y="172.9" width="16.44" height="19.22"/><rect class="cls-13_facebook-ad-99" x="249.76" y="181.12" width="9.86" height="11"/><rect class="cls-13_facebook-ad-99" x="163.71" y="181.03" width="36.83" height="11.09"/><rect class="cls-13_facebook-ad-99" x="156.27" y="196.54" width="145.42" height="90.96"/><rect class="cls-13_facebook-ad-99" x="206.74" y="181.03" width="36.83" height="11.09"/><rect class="cls-13_facebook-ad-99" x="99.05" y="196.39" width="41.85" height="2.08"/><rect class="cls-13_facebook-ad-99" x="99.05" y="201.74" width="41.85" height="2.08"/><rect class="cls-13_facebook-ad-99" x="99.05" y="207.09" width="41.85" height="2.08"/><rect class="cls-11_facebook-ad-99 targetColor" x="159.52" y="214.14" width="137.68" height="68.84" style="fill: rgb(0, 204, 143);"/><rect class="cls-13_facebook-ad-99" x="318.29" y="188.71" width="59.54" height="38.45"/><g class="cls-16_facebook-ad-99"><path class="cls-15_facebook-ad-99 targetColor" d="M333.9,207.9h-4.75l-.66,2.23h-4.27l5.09-13.54h4.56l5.09,13.54h-4.38l-.68-2.23ZM333.03,204.97l-1.54-4.87-1.48,4.87h3.02Z" style="fill: rgb(0, 204, 143);"/><path class="cls-15_facebook-ad-99 targetColor" d="M340.34,196.59h6.22c1.01-.04,2.02.13,2.96.5.73.31,1.38.8,1.87,1.43.5.64.87,1.38,1.07,2.17.22.86.34,1.74.33,2.63.05,1.14-.12,2.29-.49,3.37-.31.76-.77,1.44-1.37,2-.53.51-1.18.88-1.89,1.07-.81.23-1.65.35-2.49.37h-6.22v-13.54ZM344.53,199.67v7.41h1.02c.64.04,1.28-.06,1.87-.3.4-.23.7-.59.87-1.01.25-.76.36-1.55.31-2.35,0-1.44-.24-2.42-.71-2.95-.62-.57-1.46-.85-2.3-.77l-1.07-.03Z" style="fill: rgb(0, 204, 143);"/><path class="cls-15_facebook-ad-99 targetColor" d="M354.28,205.65l3.98-.25c.04.53.22,1.04.53,1.47.44.56,1.13.87,1.84.83.5.03.99-.12,1.38-.42.3-.24.48-.59.48-.97,0-.37-.17-.72-.46-.94-.65-.41-1.38-.67-2.14-.77-1.42-.23-2.76-.8-3.92-1.64-.77-.65-1.21-1.61-1.18-2.62,0-.7.21-1.39.61-1.97.45-.66,1.08-1.17,1.82-1.46,1.06-.4,2.19-.58,3.32-.53,1.39-.09,2.77.25,3.96.96.96.74,1.55,1.86,1.62,3.07l-3.95.23c-.05-.51-.28-.99-.66-1.34-.4-.29-.89-.44-1.39-.41-.39-.03-.78.08-1.1.31-.24.18-.38.47-.37.77.01.23.12.44.31.58.42.27.9.44,1.4.51,1.35.24,2.68.64,3.94,1.19.71.34,1.31.87,1.73,1.54.36.61.55,1.3.54,2,0,.86-.25,1.69-.72,2.4-.49.74-1.19,1.32-2.01,1.67-1.04.41-2.15.61-3.26.57-2.3,0-3.9-.44-4.78-1.33-.91-.92-1.45-2.15-1.5-3.44Z" style="fill: rgb(0, 204, 143);"/></g><path class="cls-13_facebook-ad-99" d="M199.36,256.07h-10.21l-1.42,4.81h-9.21l10.95-29.11h9.81l10.94,29.11h-9.4l-1.46-4.81ZM197.49,249.77l-3.22-10.46-3.18,10.46h6.39Z"/><path class="cls-13_facebook-ad-99" d="M213.22,231.77h13.37c2.18-.08,4.35.28,6.39,1.07,1.57.68,2.96,1.73,4.02,3.07,1.08,1.38,1.87,2.97,2.3,4.67.48,1.84.72,3.74.71,5.64.1,2.46-.26,4.91-1.06,7.24-.66,1.63-1.66,3.1-2.95,4.31-1.14,1.09-2.53,1.88-4.05,2.3-1.75.49-3.56.75-5.37.77h-13.36v-29.06ZM222.21,238.36v15.88h2.2c1.37.09,2.74-.13,4.02-.64.86-.49,1.51-1.26,1.87-2.18.54-1.63.77-3.34.68-5.05,0-3.07-.51-5.18-1.54-6.34-1.01-1.14-2.68-1.7-5.01-1.7l-2.21.03Z"/><path class="cls-13_facebook-ad-99" d="M243.17,251.25l8.56-.54c.09,1.14.48,2.24,1.13,3.18.96,1.2,2.44,1.85,3.97,1.77,1.07.07,2.12-.25,2.97-.9.65-.5,1.03-1.28,1.04-2.1-.01-.79-.38-1.53-.99-2.03-.67-.59-2.2-1.16-4.61-1.69-3.94-.89-6.75-2.07-8.44-3.53-1.66-1.39-2.59-3.46-2.54-5.63,0-1.51.46-2.98,1.3-4.24.96-1.41,2.33-2.5,3.92-3.13,2.28-.86,4.72-1.25,7.15-1.14,3.73,0,6.56.69,8.51,2.07,1.95,1.38,3.11,3.58,3.49,6.6l-8.44.5c-.1-2.19-1.96-3.88-4.15-3.78-.09,0-.17.01-.26.02-.86-.08-1.72.16-2.42.66-.49.39-.78.98-.77,1.61.01.5.25.96.65,1.25.91.58,1.94.95,3.02,1.07,2.91.52,5.74,1.39,8.44,2.57,1.52.7,2.81,1.82,3.72,3.22.78,1.3,1.18,2.8,1.16,4.31.01,1.84-.52,3.64-1.54,5.17-1.06,1.59-2.56,2.84-4.32,3.58-2.23.89-4.62,1.31-7.02,1.23-4.95,0-8.38-.95-10.29-2.86-1.93-1.95-3.08-4.53-3.24-7.26Z"/></g><g id="FB_logo_facebook-ad-99"><rect class="cls-11_facebook-ad-99 targetColor" x="52.07" y="257.86" width="88.84" height="86.05" rx="9.44" ry="9.44" style="fill: rgb(0, 204, 143);"/><rect class="cls-13_facebook-ad-99" x="46.96" y="252.28" width="88.84" height="86.05" rx="9.44" ry="9.44"/><path class="cls-11_facebook-ad-99 targetColor" d="M101.97,319.82v-15.06q0-.58-.57-.58h-9.43c-.57,0-.6,0-.6-.59v-11.15c0-.58,0-.59.59-.59h9.43q.58,0,.58-.58v-8.92c-.03-2.78.6-5.52,1.84-8.01,1.82-3.58,5.14-6.16,9.05-7.05,2.78-.72,5.6-.61,8.41-.52,1.7.05,3.39.18,5.08.3,1.09.08.89.08.89.94v9.68c0,.55,0,.58-.57.58-1.95,0-3.9-.04-5.85,0-.95.01-1.9.12-2.83.32-1.66.33-2.91,1.71-3.07,3.4-.11.68-.16,1.37-.17,2.06v7.28c0,.43.13.55.55.55h10.86q.68,0,.58.7l-1.4,10.92c-.08.69-.08.71-.77.71h-9.14q-.64,0-.64.64v30.3c0,.3-.12.38-.4.38h-12.04c-.44,0-.38-.26-.38-.52v-15.16h0Z" style="fill: rgb(0, 204, 143);"/></g><g id="character_facebook-ad-99"><path class="cls-15_facebook-ad-99 targetColor" d="M409.14,370.29c-.69.86-1.16,1.88-1.38,2.96-.88,3.53-.68,7.24.57,10.65.39,1.07,1.37,2.3,2.4,1.82.27-.15.52-.32.77-.51.76-.29,1.61-.27,2.35.08,7.79,2.4,16.24,3.3,24.12,1.2,1.04-.28,2.2-.77,2.5-1.77.35-1.17-.62-2.3-1.59-3.02-4.61-3.49-10.75-4.18-16.12-6.23-2.69-1.01-5.23-2.37-7.56-4.05-2.02-1.4-3.83-3.67-6.05-1.14Z" style="fill: rgb(0, 204, 143);"/><path class="cls-14_facebook-ad-99" d="M413.37,374.15c.88,1.93,2.32,3.55,4.15,4.64,2.93,2.1,6.48,3.18,10.09,3.07,1.06-.02,2.1-.34,2.99-.93.9-.61,1.33-1.7,1.1-2.76-.17-.49-.43-.94-.77-1.33-2.55-3.07-5.84-5.82-6.91-9.68-.25-.88-.41-1.89-1.15-2.43-.46-.29-.99-.46-1.54-.5-2.24-.35-5.95-.83-7.27,1.46-1.3,2.63-1.54,5.66-.68,8.46Z"/><path class="cls-12_facebook-ad-99" d="M420.15,288.47s2.48,39.38.93,42.8c-1.55,3.42-8.38,33.78-8.38,33.78,0,0,8.38,4.96,11.16,3.07,2.79-1.89,14.27-46.21,14.27-46.21l5.6-26.92-23.59-6.52Z"/><path class="cls-9_facebook-ad-99" d="M420.07,287.58s2.48,39.38.93,42.79c-1.55,3.41-8.38,33.78-8.38,33.78,0,0,8.38,4.97,11.16,3.07s14.26-46.2,14.26-46.2l5.59-26.98-23.57-6.46Z"/><path class="cls-12_facebook-ad-99" d="M411.07,270.65s2.4,17.2,11.24,19.84,33.19,11.16,33.19,11.16c0,0-25.74,15.97-26.67,17.06-.93,1.09-5.27,3.56-5.27,3.56l6.14,13.49s40.69-21.17,44.89-25.33c4.2-4.17,4.18-15.12,2.3-16.74s-29.31-24.44-29.31-24.44l-36.5,1.4Z"/><path class="cls-10_facebook-ad-99" d="M411.07,270.65s2.4,17.2,11.24,19.84,33.19,11.16,33.19,11.16c0,0-25.74,15.97-26.67,17.06-.93,1.09-5.27,3.56-5.27,3.56l6.14,13.49s40.69-21.17,44.89-25.33c4.2-4.17,4.18-15.12,2.3-16.74s-29.31-24.44-29.31-24.44l-36.5,1.4Z"/><rect class="cls-15_facebook-ad-99 targetColor" x="454.73" y="200.71" width="19.18" height="2.67" rx="1.11" ry="1.11" transform="translate(116.38 569.96) rotate(-70.11)" style="fill: rgb(0, 204, 143);"/><path class="cls-12_facebook-ad-99" d="M440.67,155.69c.69,3.35-.23,6.84-2.49,9.41-.54.67-1.25,1.17-2.07,1.46-1.44.33-2.94-.21-3.84-1.38-.86-1.15-1.39-2.51-1.54-3.94-.58-3.84,0-9.15,2.69-12.17,2.69-3.02,6.79,4.5,7.24,6.62Z"/><path class="cls-8_facebook-ad-99" d="M440.67,155.69c.69,3.35-.23,6.84-2.49,9.41-.54.67-1.25,1.17-2.07,1.46-1.44.33-2.94-.21-3.84-1.38-.86-1.15-1.39-2.51-1.54-3.94-.58-3.84,0-9.15,2.69-12.17,2.69-3.02,6.79,4.5,7.24,6.62Z"/><path class="cls-14_facebook-ad-99" d="M424.1,185.28c0,1.26-.05,2.81-1.16,3.4-.38.17-.8.26-1.22.25-1.42.18-2.87-.09-4.13-.77-1.47-1.06-2.32-2.79-2.25-4.61.08-1.78.5-3.52,1.25-5.14,1.14-2.79,2.57-5.6,5.01-7.39.37-.31.81-.51,1.29-.58,2.4-.16,3.92,4.61,3.62,6.43-.43,2.96-2.32,5.3-2.41,8.38Z"/><path class="cls-15_facebook-ad-99 targetColor" d="M408.28,183.77s8.72-1.74,12.56,1.87c3.84,3.61,12.09,10.81,15,17.09,2.91,6.28,4.07,16.51,4.07,16.51l7.68,50.01s-31.17,4.88-36.52,1.4c-5.35-3.49.7-36.98-1.63-41.87-2.33-4.89-10.7-31.4-6.98-37.91,3.72-6.51,5.82-7.09,5.82-7.09Z" style="fill: rgb(0, 204, 143);"/><path class="cls-6_facebook-ad-99" d="M442.78,237.62s-11.16,11.47-19.19,7.44c-8.03-4.03-9.61-17.37-9.61-17.37l-7.33-29.89,20.97,32.07,13.96.62,1.21,7.13Z"/><path class="cls-15_facebook-ad-99 targetColor" d="M415.49,194.12l19.3,21.86,12.33-5.81s6.75,7.91,6.75,10.69-19.78,16.75-22.79,13.96c-3.02-2.79-21.89-23.72-23.73-26.98-1.84-3.25-3.95-17.44,8.15-13.73Z" style="fill: rgb(0, 204, 143);"/><path class="cls-7_facebook-ad-99" d="M421.6,171.08s-1.97,7.29,1.11,10.89l1.63.81,2.18-5.85-4.91-5.86Z"/><path class="cls-14_facebook-ad-99" d="M437.98,169.23c.28.36.44.81.45,1.27-.04.22-.13.42-.27.6-1.33,2.02-3.48,3.34-4.99,5.22-1.06,1.31-2,3-3.65,3.27-1.06.09-2.12-.18-3-.77-4.16-2.39-5.24-7.11-4.61-9.01s1.54-3.7,2.25-5.59c.82-2.26,1.39-4.81,3.26-6.31,1.29-.89,2.79-1.42,4.35-1.54.6-.13,1.22-.11,1.81.04,1.77.58,3.84,2.96,4.02,4.83.29,2.54-.88,5.63.38,7.99Z"/><path class="cls-12_facebook-ad-99" d="M431.86,163.39c-1.65.84-3.69.53-5.37,1.31-2.61,1.23-3.36,4.5-4.95,6.91-.9,1.35-2.11,2.46-3.13,3.72-4.9,6.03-5.08,14.72-9.34,21.23-.12.23-.3.42-.52.55-.22.09-.46.12-.7.08-3.9-.22-7.65-1.62-10.75-3.99-.75-.39-1.08-1.28-.77-2.06,2.15-9.86,7.92-18.59,10.53-28.35.69-2.56,1.16-5.2,2.18-7.68,1.03-2.36,2.47-4.52,4.25-6.38,1.68-1.92,3.8-3.39,6.19-4.3,3.72-1.25,7.85-.39,11.41,1.26,3.84,1.77,6.39,4.53,5.87,8.91-.35,2.91-2.22,7.43-4.88,8.79Z"/><path class="cls-2_facebook-ad-99" d="M431.86,163.39c-1.65.84-3.69.53-5.37,1.31-2.61,1.23-3.36,4.5-4.95,6.91-.9,1.35-2.11,2.46-3.13,3.72-4.9,6.03-5.08,14.72-9.34,21.23-.12.23-.3.42-.52.55-.22.09-.46.12-.7.08-3.9-.22-7.65-1.62-10.75-3.99-.75-.39-1.08-1.28-.77-2.06,2.15-9.86,7.92-18.59,10.53-28.35.69-2.56,1.16-5.2,2.18-7.68,1.03-2.36,2.47-4.52,4.25-6.38,1.68-1.92,3.8-3.39,6.19-4.3,3.72-1.25,7.85-.39,11.41,1.26,3.84,1.77,6.39,4.53,5.87,8.91-.35,2.91-2.22,7.43-4.88,8.79Z"/><path class="cls-14_facebook-ad-99" d="M453.17,207.77c1.23-.32,2.5-.52,3.77-.59,2.23-.43,4.41-1.09,6.51-1.94.9-.31,1.97-.57,2.72,0,.55.47.8,1.2.67,1.9-.13.7-.39,1.36-.77,1.97l-2.3,4.25c-.77,1.37-1.54,2.8-2.83,3.64-1.84,1.17-4.21.88-6.35,1.3-.97.28-1.97.45-2.99.49-2.78-.14-4.18-3.19-3.67-5.68.49-2.23,3.19-4.63,5.24-5.34Z"/><path class="cls-14_facebook-ad-99" d="M420.63,326.08c-.49-.05-.98-.03-1.47.07-.56.23-1.06.6-1.44,1.08-1.68,1.66-3.16,3.51-4.39,5.53-2.02,3.88-2.56,8.35-1.54,12.6.03.23.12.44.27.62.44.41,1.14,0,1.54-.45l11.85-11.59,2.1-2.06c.41-.26.53-.81.26-1.22-.03-.05-.06-.09-.1-.13l-1.45-2.51c-.37-.85-.84-1.66-1.4-2.4-.61-.61-.95-.21-1.7.05-.81.29-1.67.43-2.53.41Z"/><path class="cls-15_facebook-ad-99 targetColor" d="M413.14,324.87c-2.59.11-5.16.58-7.62,1.4-.94.27-2.1.81-2.04,1.79.05.98,1.11,1.41,1.44,2.18.21.77.14,1.59-.21,2.3-1.28,3.55-1.85,7.32-1.66,11.09.19,3.79,1.62,7.41,4.08,10.3.64.87,1.62,1.43,2.69,1.54,1.31,0,2.3-1.18,2.86-2.36,1.64-3.52.93-7.62.94-11.52-.01-3.87.75-7.7,2.25-11.27.4-.92,2.13-2.89,1.94-3.88-.33-1.49-3.47-1.54-4.67-1.58Z" style="fill: rgb(0, 204, 143);"/></g></svg>