<svg id="_0531_new_campaign" xmlns="http://www.w3.org/2000/svg" xmlns:xlink="http://www.w3.org/1999/xlink" viewBox="0 0 500 500" data-imageid="marketing-campaign-2-76" imageName="Marketing Campaign 2" class="illustrations_image" style="width: 145px;"><defs><style>.cls-1_marketing-campaign-2-76{fill:url(#linear-gradient);}.cls-1_marketing-campaign-2-76,.cls-2_marketing-campaign-2-76,.cls-3_marketing-campaign-2-76,.cls-4_marketing-campaign-2-76,.cls-5_marketing-campaign-2-76,.cls-6_marketing-campaign-2-76,.cls-7_marketing-campaign-2-76,.cls-8_marketing-campaign-2-76,.cls-9_marketing-campaign-2-76,.cls-10_marketing-campaign-2-76,.cls-11_marketing-campaign-2-76,.cls-12_marketing-campaign-2-76,.cls-13_marketing-campaign-2-76,.cls-14_marketing-campaign-2-76,.cls-15_marketing-campaign-2-76{stroke-width:0px;}.cls-2_marketing-campaign-2-76{opacity:.18;}.cls-2_marketing-campaign-2-76,.cls-16_marketing-campaign-2-76{isolation:isolate;}.cls-2_marketing-campaign-2-76,.cls-15_marketing-campaign-2-76{fill:#68e1fd;}.cls-3_marketing-campaign-2-76{fill:url(#linear-gradient-10-marketing-campaign-2-76);}.cls-4_marketing-campaign-2-76{fill:url(#linear-gradient-4-marketing-campaign-2-76);}.cls-5_marketing-campaign-2-76{fill:url(#linear-gradient-2-marketing-campaign-2-76);}.cls-6_marketing-campaign-2-76{fill:url(#linear-gradient-3-marketing-campaign-2-76);}.cls-7_marketing-campaign-2-76{fill:url(#linear-gradient-8-marketing-campaign-2-76);}.cls-8_marketing-campaign-2-76{fill:url(#linear-gradient-9-marketing-campaign-2-76);}.cls-9_marketing-campaign-2-76{fill:url(#linear-gradient-7-marketing-campaign-2-76);}.cls-10_marketing-campaign-2-76{fill:url(#linear-gradient-5-marketing-campaign-2-76);}.cls-11_marketing-campaign-2-76{fill:url(#linear-gradient-6-marketing-campaign-2-76);}.cls-12_marketing-campaign-2-76{fill:#231f20;}.cls-13_marketing-campaign-2-76{fill:#fff;}.cls-14_marketing-campaign-2-76{fill:#ffb4a3;}</style><linearGradient id="linear-gradient-marketing-campaign-2-76" x1="-2258.8" y1="-3.87" x2="-2248" y2="141.68" gradientTransform="translate(-2009.05 315.21) rotate(-180) scale(1 -1)" gradientUnits="userSpaceOnUse"><stop offset="0" stop-color="#231f20"/><stop offset=".08" stop-color="#231f20" stop-opacity=".69"/><stop offset=".21" stop-color="#231f20" stop-opacity=".32"/><stop offset="1" stop-color="#231f20" stop-opacity="0"/></linearGradient><linearGradient id="linear-gradient-2-marketing-campaign-2-76" x1="198.84" y1="-37.36" x2="247.99" y2="-239.37" gradientTransform="translate(75.74 240.89) rotate(15.71)" xlink:href="#linear-gradient-marketing-campaign-2-76"/><linearGradient id="linear-gradient-3-marketing-campaign-2-76" x1="232.23" y1="-76.85" x2="193.05" y2="-130.23" gradientTransform="translate(75.74 240.89) rotate(15.71)" gradientUnits="userSpaceOnUse"><stop offset="0" stop-color="#fff"/><stop offset="1" stop-color="#fff" stop-opacity="0"/></linearGradient><linearGradient id="linear-gradient-4-marketing-campaign-2-76" x1="190.29" y1="-64.7" x2="216" y2="-170.39" gradientTransform="translate(75.74 240.89) rotate(15.71)" xlink:href="#linear-gradient-marketing-campaign-2-76"/><linearGradient id="linear-gradient-5-marketing-campaign-2-76" x1="195.38" y1="-105.76" x2="232.36" y2="-62.51" gradientTransform="translate(75.74 240.89) rotate(15.71)" xlink:href="#linear-gradient-marketing-campaign-2-76"/><linearGradient id="linear-gradient-6-marketing-campaign-2-76" x1="206.81" y1="-100.89" x2="215.25" y2="-74.85" gradientTransform="translate(75.74 240.89) rotate(15.71)" xlink:href="#linear-gradient-marketing-campaign-2-76"/><linearGradient id="linear-gradient-7-marketing-campaign-2-76" x1="169.44" y1="-90.75" x2="268.57" y2="-88.28" gradientTransform="translate(75.74 240.89) rotate(15.71)" xlink:href="#linear-gradient-marketing-campaign-2-76"/><linearGradient id="linear-gradient-8-marketing-campaign-2-76" x1="301.24" y1="127.47" x2="103.01" y2="-534.06" gradientTransform="translate(-49.37 315.21)" xlink:href="#linear-gradient-marketing-campaign-2-76"/><linearGradient id="linear-gradient-9-marketing-campaign-2-76" x1="234.69" y1="-117.73" x2="228.79" y2="-67.85" gradientTransform="translate(-49.37 315.21)" xlink:href="#linear-gradient-marketing-campaign-2-76"/><linearGradient id="linear-gradient-10-marketing-campaign-2-76" x1="267.54" y1="-215.36" x2="320.27" y2="-202.24" gradientTransform="translate(-49.37 315.21)" xlink:href="#linear-gradient-marketing-campaign-2-76"/></defs><g id="background_marketing-campaign-2-76"><path class="cls-2_marketing-campaign-2-76 targetColor" d="M211.88,116.34c-3.76,1.74-7.46,3.64-11.08,5.7-42.4,24.14-72.07,69.43-118.48,84.47-12.55,4.07-26.05,5.18-36.21,14.09-7.32,6.7-13.69,14.36-18.95,22.77-11.1,17.43-18.46,36.98-21.62,57.41-6.34,39.55,2.53,84.09,34,111.19,23.73,20.37,58.87,21.41,88.5,15.9,16.98-3.15,33.28-9.31,50.1-13.34,29.41-7.05,60.01-7.6,89.66-1.6,19.57,3.96,38.46,10.76,58.01,14.95,14.07,3.02,28.69,4.69,43.03,2.83,13.76-1.78,24.38-8.35,36.92-13.65,23.86-10.11,47.99-23.01,63.21-44.75,11.69-17.04,17.08-37.61,15.27-58.2-1.94-20.54-10.3-39.95-23.89-55.47-6.06-6.95-13.98-13.11-16.92-21.97s-3.43-19.18-4.34-28.28c-2.02-19.91-4.4-40.41-14.12-57.91-10.81-19.47-29.94-33.4-50.79-41.24-20.85-7.84-43.38-10.09-65.65-10.35-33.07-.4-66.9,3.67-96.67,17.43Z" style="fill: rgb(0, 204, 143);"/></g><g id="monitor_marketing-campaign-2-76"><polygon class="cls-15_marketing-campaign-2-76 targetColor" points="193.74 389.33 294.2 389.33 276.42 325.45 208.73 325.45 193.74 389.33" style="fill: rgb(0, 204, 143);"/><polygon class="cls-1_marketing-campaign-2-76" points="193.74 389.33 294.2 389.33 276.42 325.45 208.73 325.45 193.74 389.33"/><path class="cls-15_marketing-campaign-2-76 targetColor" d="M394.44,154.68v164.81c0,9.95-8.07,18.02-18.02,18.02H116.08c-9.95,0-18.01-8.07-18.01-18.02h0v-164.81c0-9.95,8.07-18.02,18.02-18.02h260.31c9.95,0,18.03,8.06,18.04,18.01h0Z" style="fill: rgb(0, 204, 143);"/><path class="cls-12_marketing-campaign-2-76" d="M394.44,154.68v144.53H98.07v-144.53c0-9.96,8.07-18.03,18.02-18.04h260.31c9.96.01,18.02,8.08,18.04,18.04Z"/><path class="cls-13_marketing-campaign-2-76" d="M389.98,158.18v136.26H102.56v-136.26c.05-9.6,7.88-17.35,17.48-17.3,0,0,0,0,.01,0h252.43c9.6-.06,17.44,7.68,17.5,17.28,0,0,0,0,0,.01Z"/><path class="cls-2_marketing-campaign-2-76 targetColor" d="M389.98,158.18v136.26H102.56v-136.26c.05-9.6,7.88-17.35,17.48-17.3,0,0,0,0,.01,0h252.43c9.6-.06,17.44,7.68,17.5,17.28,0,0,0,0,0,.01Z" style="fill: rgb(0, 204, 143);"/><rect class="cls-15_marketing-campaign-2-76 targetColor" x="249.99" y="244.98" width="44.22" height="3.07" rx="1.53" ry="1.53" style="fill: rgb(0, 204, 143);"/><rect class="cls-15_marketing-campaign-2-76 targetColor" x="301.75" y="244.98" width="44.22" height="3.07" rx="1.53" ry="1.53" style="fill: rgb(0, 204, 143);"/><rect class="cls-15_marketing-campaign-2-76 targetColor" x="249.99" y="251.91" width="69.81" height="3.07" rx="1.53" ry="1.53" style="fill: rgb(0, 204, 143);"/><rect class="cls-15_marketing-campaign-2-76 targetColor" x="249.99" y="258.81" width="44.22" height="3.07" rx="1.53" ry="1.53" style="fill: rgb(0, 204, 143);"/><rect class="cls-15_marketing-campaign-2-76 targetColor" x="301.75" y="258.81" width="44.22" height="3.07" rx="1.53" ry="1.53" style="fill: rgb(0, 204, 143);"/></g><g id="pie_chart_marketing-campaign-2-76"><path class="cls-15_marketing-campaign-2-76 targetColor" d="M307.78,216.87c-16.84-.54-30.32-6.1-30.11-12.41,0-.44.17-5.77.3-6.2,0,0,.69.18.69.17,1.94-5.63,14.23-4.92,29.86-4.42,13.74.45,25.8-.21,29.47,4.59.83,1.08.69,6.67.65,7.83-.21,6.25-14.02,10.98-30.85,10.43Z" style="fill: rgb(0, 204, 143);"/><path class="cls-5_marketing-campaign-2-76" d="M307.78,216.87c-16.84-.54-30.32-6.1-30.11-12.41,0-.44.24-6.43.24-6.43,1.94-5.63,14.98-4.51,30.61-3.96,13.74.45,26.37,1.63,30.06,6.43,0,0,.09,4.83,0,5.99-.16,6.2-13.96,10.93-30.8,10.38Z"/><path class="cls-15_marketing-campaign-2-76 targetColor" d="M307.71,211.38c-16.82-.54-30.03-5.99-29.82-12.3v-1.24c1.94-5.63,14.9-9.81,30.55-9.31,13.73.45,25.22,4.23,28.89,9.03.79.95,1.22,2.15,1.21,3.39-.18,6.34-14,11.02-30.83,10.43Z" style="fill: rgb(0, 204, 143);"/><path class="cls-6_marketing-campaign-2-76" d="M337.34,197.6l-27.93.66-31.54.74c-.04-.37-.04-.75,0-1.12h0c1.48-4.29,9.23-7.81,19.87-8.94,3.55-.37,7.12-.49,10.68-.37,13.79.4,25.25,4.23,28.91,9.03Z"/><path class="cls-4_marketing-campaign-2-76" d="M293.4,209.61l16.01-11.35-31.54.74s-1.58,6.34,15.53,10.61Z"/><path class="cls-15_marketing-campaign-2-76 targetColor" d="M310.14,195.67l-31.83.74c.04-.45.12-.89.24-1.32h0c1.48-4.27,9.39-7.61,19.94-8.77l11.66,9.35Z" style="fill: rgb(0, 204, 143);"/><polygon class="cls-15_marketing-campaign-2-76 targetColor" points="309.41 198.26 310.14 195.67 278.31 196.41 309.41 198.26" style="fill: rgb(0, 204, 143);"/><polygon class="cls-10_marketing-campaign-2-76" points="309.41 198.26 310.14 195.67 278.31 196.41 277.9 197.88 309.41 198.26"/><polygon class="cls-11_marketing-campaign-2-76" points="293.4 209.61 294.14 206.96 309.89 196.54 309.41 198.26 293.4 209.61"/><path class="cls-15_marketing-campaign-2-76 targetColor" d="M309.89,196.54l-31.99,1.32s3.28,6.72,16.24,9.08l15.74-10.4Z" style="fill: rgb(0, 204, 143);"/><path class="cls-15_marketing-campaign-2-76 targetColor" d="M294.14,206.96l-2.15,7.75s-13.18-3.32-14.28-9.44l.18-7.4s3.82,8.37,16.24,9.08Z" style="fill: rgb(0, 204, 143);"/><path class="cls-9_marketing-campaign-2-76" d="M294.14,206.96l-2.15,7.75s-13.18-3.32-14.28-9.44l.18-7.4s3.82,8.37,16.24,9.08Z"/><polygon class="cls-15_marketing-campaign-2-76 targetColor" points="293.27 192.83 288.8 179.03 272.63 173.52 272.77 173.1 289.16 178.69 289.19 178.8 293.69 192.69 293.27 192.83" style="fill: rgb(0, 204, 143);"/><path class="cls-15_marketing-campaign-2-76 targetColor" d="M270.96,174.46c-1.03-.22-1.68-1.23-1.46-2.26.22-1.03,1.23-1.68,2.26-1.46h.21c1.03.22,1.68,1.23,1.46,2.26-.22,1.03-1.23,1.68-2.26,1.46h-.21ZM271.87,171.23c-.78-.22-1.59.24-1.8,1.02-.22.78.24,1.59,1.02,1.8.78.22,1.58-.24,1.8-1.01h0c.19-.76-.26-1.54-1.02-1.75v-.05Z" style="fill: rgb(0, 204, 143);"/><polygon class="cls-15_marketing-campaign-2-76 targetColor" points="313.3 190.54 313.01 190.21 324.13 180.56 324.23 180.59 341.04 184.24 340.95 184.68 324.24 181.04 313.3 190.54" style="fill: rgb(0, 204, 143);"/><path class="cls-15_marketing-campaign-2-76 targetColor" d="M341.86,186.33c-1.01-.28-1.61-1.33-1.33-2.34s1.33-1.61,2.34-1.33h0c1,.29,1.59,1.34,1.32,2.35h0c-.28,1.01-1.33,1.6-2.33,1.32ZM342.76,183.08c-.78-.22-1.59.23-1.81,1.01-.22.78.23,1.59,1.01,1.81s1.59-.23,1.81-1.01c0,0,0-.02,0-.03.2-.77-.25-1.56-1.02-1.78Z" style="fill: rgb(0, 204, 143);"/><path class="cls-15_marketing-campaign-2-76 targetColor" d="M352.14,227.92c-1.04-.27-1.68-1.33-1.41-2.37s1.33-1.68,2.37-1.41c1,.25,1.63,1.24,1.44,2.25v.21c-.27,1.01-1.31,1.61-2.33,1.34-.02,0-.05-.01-.07-.02ZM353.04,224.69c-.78-.22-1.59.24-1.8,1.02-.22.78.24,1.59,1.02,1.8.78.22,1.58-.24,1.8-1.01h0c.21-.77-.23-1.57-1-1.79h-.01Z" style="fill: rgb(0, 204, 143);"/><polygon class="cls-15_marketing-campaign-2-76 targetColor" points="350.97 225.85 334.79 221.34 334.74 221.3 321.63 206.51 321.96 206.22 335.03 220.96 351.09 225.43 350.97 225.85" style="fill: rgb(0, 204, 143);"/><path class="cls-15_marketing-campaign-2-76 targetColor" d="M254.21,203.64c-1.01-.29-1.59-1.34-1.31-2.34.29-1.01,1.34-1.59,2.34-1.31,1.01.28,1.59,1.33,1.31,2.33-.27,1.01-1.31,1.6-2.31,1.33-.01,0-.02,0-.03,0ZM255.12,200.39c-.78-.22-1.59.24-1.8,1.02-.22.78.24,1.59,1.02,1.8.78.22,1.58-.24,1.8-1.01.21-.78-.24-1.58-1.02-1.81Z" style="fill: rgb(0, 204, 143);"/><polygon class="cls-15_marketing-campaign-2-76 targetColor" points="272.47 206.97 256.28 202.46 256.4 202.04 272.47 206.51 291.27 200.63 291.4 201.05 272.47 206.97" style="fill: rgb(0, 204, 143);"/><path class="cls-15_marketing-campaign-2-76 targetColor" d="M361.9,222.68h12.68c1.46,0,2.64,1.18,2.64,2.64h0c0,1.46-1.18,2.64-2.64,2.64h-12.68c-1.46,0-2.64-1.18-2.64-2.64h0c0-1.46,1.18-2.64,2.64-2.64Z" style="fill: rgb(0, 204, 143);"/><path class="cls-15_marketing-campaign-2-76 targetColor" d="M350.44,180.43h12.64c1.46,0,2.64,1.18,2.64,2.64h0c0,1.46-1.18,2.64-2.64,2.64h-12.68c-1.46,0-2.64-1.18-2.64-2.64h0c0-1.46,1.18-2.64,2.64-2.64.01,0,.03,0,.04,0Z" style="fill: rgb(0, 204, 143);"/><path class="cls-15_marketing-campaign-2-76 targetColor" d="M263.67,162.98h12.68c1.46,0,2.64,1.18,2.64,2.64h0c0,1.46-1.18,2.64-2.64,2.64h-12.68c-1.46,0-2.64-1.18-2.64-2.64h0c0-1.46,1.18-2.64,2.64-2.64Z" style="fill: rgb(0, 204, 143);"/><path class="cls-15_marketing-campaign-2-76 targetColor" d="M240.84,206.95h12.68c1.46,0,2.64,1.18,2.64,2.64h0c0,1.46-1.18,2.64-2.64,2.64h-12.68c-1.46,0-2.64-1.18-2.64-2.64h0c0-1.46,1.18-2.64,2.64-2.64Z" style="fill: rgb(0, 204, 143);"/></g><g id="character_marketing-campaign-2-76"><path class="cls-7_marketing-campaign-2-76" d="M145.31,236.97c-2.82-11.1-7.17-21.82-9.4-33.07s-2.24-22.74-2.12-34.19c-.14-3.74.33-7.48,1.4-11.08,1.25-3.52,3.96-6.76,7.54-7.71l5.21,34.08c1.02,6.68,2.06,13.45,4.56,19.78,2.51,6.33,6.59,12.16,12.53,15.47-1.94-9.74-3.26-19.6-3.96-29.51-.4-5.42-.13-11.87,4.34-14.91,3.96-2.76,9.8-1.32,13.18,2.15,3.39,3.47,4.94,8.29,5.93,13.03,1.42,6.82,2.02,13.95,5.08,20.2,1.04,2.15,3.78,4.38,5.46,2.64.26-.31.48-.65.65-1.02l18.39-36.35c1.69-3.35,3.3-7.66.9-10.55-1.82-2.18-5.05-2.35-7.91-2.39-18.26-.29-36.41-2.82-54.06-7.52,12.33-6.05,26.37-7.2,40.15-7.65,11.33-.37,23.19-.21,33.21,5.1.54.24,1.01.59,1.4,1.04.41.63.64,1.36.67,2.11,1.71,13.82-.67,27.83-6.86,40.31-4.09,8.2-9.74,15.54-14.08,23.63-11.95,22.2-13.29,48.68-10.55,73.74-11.22-1.21-18.46,1.82-29.74.59-2.89-.32-7.52-.96-10.39-.51-1.7.28-10.19,1.04-11.87-.08,0,0,3.65-16.24,3.85-19.46.78-12.73-.4-25.51-3.51-37.88Z"/><path class="cls-13_marketing-campaign-2-76" d="M193.68,229.19c-1.04,0,2.18-6.79,2.36-7.09,2.37-3.85,5.08-7.48,8.11-10.84,2.64-3.05,5.27-6.18,8.16-8.99,2.64-2.64,6.03-6.1,10.18-5.27,3.12.66,5,4.15,4.87,7.36s-1.78,6.1-3.51,8.81c-3.47,5.42-7.19,10.55-10.96,15.82l-19.21.21Z"/><path class="cls-13_marketing-campaign-2-76" d="M169.64,232.84c1,.22-.75-7.11-.86-7.44-1.53-4.25-3.44-8.35-5.71-12.26-1.98-3.55-3.86-7.13-6.14-10.55-2.1-3.09-4.65-7.21-8.89-7.23-3.19,0-5.75,3.03-6.28,6.18s.49,6.36,1.62,9.35c2.28,6.03,4.87,11.87,7.49,17.71l18.76,4.23Z"/><path class="cls-13_marketing-campaign-2-76" d="M161.65,218.17h40.66c5.82-.15,10.67,4.44,10.82,10.26,0,0,0,0,0,0v.47s-7.75,31.64-7.91,42.27c0,5.81,1.83,23.21,1.83,23.21h-50.21s2.32-18.17,2.27-24.26c-.08-10.38-8.29-41.22-8.29-41.22-.11-5.82,4.52-10.64,10.35-10.75,0,0,0,0,0,0h.47Z"/><path class="cls-14_marketing-campaign-2-76" d="M236.51,158.4c.37-1.13.44-2.33.21-3.49-.34-1.05-1-1.97-1.87-2.64-2.18-1.87-5.08-2.69-7.91-2.22-.58.09-1.14.32-1.62.66-.44.37-.81.82-1.09,1.32-1.42,2.23-2.89,4.92-1.96,7.4.66,1.19,1.38,2.35,2.16,3.47.42.8.63,1.7,1.03,2.52,1.02,2.06,4.92,4.81,7.3,3.28,1.19-.75,1.63-3.31,2.07-4.55.61-1.85,1.19-3.78,1.69-5.75Z"/><path class="cls-14_marketing-campaign-2-76" d="M135.12,154.87c-.37-1.13-.45-2.33-.21-3.49.34-1.05,1-1.97,1.87-2.64,2.18-1.87,5.08-2.69,7.91-2.22.58.09,1.14.32,1.62.66.44.37.81.82,1.09,1.32,1.41,2.23,2.89,4.9,1.96,7.4-.66,1.19-1.38,2.35-2.16,3.47-.42.8-.63,1.7-1.03,2.52-1.02,2.06-4.92,4.81-7.32,3.28-1.17-.75-1.62-3.31-2.06-4.55-.62-1.85-1.2-3.78-1.69-5.75Z"/><path class="cls-14_marketing-campaign-2-76" d="M188.24,224.1c-.31,2.49-2.55,4.29-5.05,4.05-4.98-.24-5.35-4.05-5.35-4.05v-19.78h10.4v19.78Z"/><path class="cls-8_marketing-campaign-2-76" d="M177.84,214.09s6.51,10.15,10.4,5.27v-7.91l-10.4,2.64Z"/><path class="cls-14_marketing-campaign-2-76" d="M173.46,209.06c2.64,8.07,15.56,8.31,19.9,1.9,2.52-3.72,2.82-8.56,2.03-12.97-.7-4.36-2.03-8.59-3.96-12.57-1.32-2.51-2.64-4.73-5.71-5.09-3.45-.23-6.9.54-9.93,2.22-5.92,3.19-8.77,10.11-6.82,16.55.52,1.56,1.17,3.08,1.96,4.52.99,1.74,1.83,3.56,2.52,5.45Z"/><path class="cls-12_marketing-campaign-2-76" d="M194.91,184.62c-.55,1.34-1.37,2.56-2.4,3.59-2.12,2.03-4.82,3.34-7.73,3.74-4.23.67-8.53-.08-12.8-.42-.2,1.4-1.18,2.56-2.52,3.01.65,2.98,1.5,5.91,2.57,8.77,1.05,2.8,2.56,5.39,3.69,8.12-3.52-2.43-6.22-6.59-8.79-9.93-1.36-1.6-2.45-3.4-3.23-5.35-.79-1.98-.57-4.22.58-6.01.63-1.04,1.33-2.04,2.1-2.98,1.17-.86,2-2.12,2.32-3.55.16-1.49-.69-2.93-.8-4.43-.04-.21,0-.43.11-.62.13-.14.3-.24.49-.29l3.05-1.13c-.28-.63-.64-1.23-1.07-1.77,1.79-.94,3.79-1.4,5.81-1.32-.41-.95-.95-1.83-1.6-2.64,1.38-.55,2.93-.46,4.23.24,1.42.55,2.8,1.24,4.17,1.91.13-1.14.15-2.29.07-3.44,1.81-.15,3.61.37,5.06,1.46,1.48.83,2.81,1.89,3.96,3.14.81.92,1.43,1.99,1.79,3.16.37,1.32,1.04,2.4,1.32,3.68.18,1.03.06,2.1-.37,3.06Z"/><path class="cls-14_marketing-campaign-2-76" d="M170.67,203.76c-.92.15-1.74.67-2.27,1.44-.29.61-.33,1.31-.12,1.95.23.63.56,1.21.99,1.71.23.31.5.58.8.8.53.3,1.12.45,1.73.44.47.03.94.03,1.41,0,.24,0,.47-.06.69-.17.23-.17.39-.4.47-.67.33-.98.33-2.05,0-3.03-.22-.93-.67-1.78-1.32-2.48-.59-.59-1.58-.21-2.39.01Z"/><path class="cls-13_marketing-campaign-2-76" d="M214.32,196.69c-.87,2.17-1.25,4.5-1.09,6.83.59,4.28,4.54,7.27,8.82,6.67,2.1-.29,3.99-1.42,5.24-3.13,1.22-1.96,2-4.17,2.28-6.47,2.06-10.81,3.92-21.65,5.59-32.51-1.92-.51-7.91-3.23-9.53-2.15s-3.2,7.91-3.96,9.91c-1.32,3.49-2.64,6.99-3.82,10.55-1.19,3.24-1.9,7.24-3.52,10.3Z"/><path class="cls-13_marketing-campaign-2-76" d="M139.53,197.03c.09,2.33.71,4.62,1.82,6.67,2.31,3.65,7.14,4.73,10.79,2.42,1.78-1.13,3.03-2.92,3.46-4.98.32-2.3.12-4.64-.59-6.84-2.58-10.7-5.34-21.34-8.29-31.92-1.96.32-8.48.28-9.57,1.96-1.09,1.69.32,8.46.45,10.68.24,3.72.52,7.43.86,11.14.3,3.47,1.29,7.4,1.08,10.86Z"/><rect class="cls-15_marketing-campaign-2-76 targetColor" x="142.23" y="103.33" width="87.16" height="56.25" style="fill: rgb(0, 204, 143);"/><circle class="cls-15_marketing-campaign-2-76 targetColor" cx="230.41" cy="102.89" r="8.48" style="fill: rgb(0, 204, 143);"/><circle class="cls-3_marketing-campaign-2-76" cx="230.41" cy="102.89" r="8.48"/><g class="cls-16_marketing-campaign-2-76"><path class="cls-13_marketing-campaign-2-76" d="M150.51,145.08v-22.99h4.52l9.41,15.35v-15.35h4.31v22.99h-4.66l-9.27-14.99v14.99h-4.31Z"/><path class="cls-13_marketing-campaign-2-76" d="M173.65,145.08v-22.99h17.04v3.89h-12.4v5.1h11.54v3.87h-11.54v6.26h12.84v3.87h-17.48Z"/><path class="cls-13_marketing-campaign-2-76" d="M198.33,145.08l-5.49-22.99h4.75l3.46,15.79,4.2-15.79h5.52l4.03,16.06,3.53-16.06h4.67l-5.58,22.99h-4.92l-4.58-17.18-4.56,17.18h-5.03Z"/></g></g></svg>