<svg id="_0289_note_taking" xmlns="http://www.w3.org/2000/svg" xmlns:xlink="http://www.w3.org/1999/xlink" viewBox="0 0 500 500" data-imageid="note-taking-10" imageName="Note Taking" class="illustrations_image" style="width: 145px;"><defs><style>.cls-1_note-taking-10{opacity:.45;}.cls-1_note-taking-10,.cls-2_note-taking-10,.cls-3_note-taking-10,.cls-4_note-taking-10,.cls-5_note-taking-10,.cls-6_note-taking-10,.cls-7_note-taking-10,.cls-8_note-taking-10,.cls-9_note-taking-10,.cls-10_note-taking-10,.cls-11_note-taking-10,.cls-12_note-taking-10,.cls-13_note-taking-10,.cls-14_note-taking-10,.cls-15_note-taking-10,.cls-16_note-taking-10{stroke-width:0px;}.cls-1_note-taking-10,.cls-12_note-taking-10{isolation:isolate;}.cls-1_note-taking-10,.cls-12_note-taking-10,.cls-16_note-taking-10{fill:#68e1fd;}.cls-2_note-taking-10{fill:url(#linear-gradient);}.cls-3_note-taking-10{fill:url(#linear-gradient-10-note-taking-10);}.cls-17_note-taking-10{fill:none;stroke:#68e1fd;stroke-linecap:round;stroke-miterlimit:10;stroke-width:1.2px;}.cls-4_note-taking-10{fill:url(#linear-gradient-4-note-taking-10);}.cls-5_note-taking-10{fill:url(#linear-gradient-2-note-taking-10);}.cls-6_note-taking-10{fill:url(#linear-gradient-3-note-taking-10);}.cls-7_note-taking-10{fill:url(#linear-gradient-8-note-taking-10);}.cls-8_note-taking-10{fill:url(#linear-gradient-9-note-taking-10);}.cls-9_note-taking-10{fill:url(#linear-gradient-7-note-taking-10);}.cls-10_note-taking-10{fill:url(#linear-gradient-5-note-taking-10);}.cls-11_note-taking-10{fill:url(#linear-gradient-6-note-taking-10);}.cls-12_note-taking-10{opacity:.24;}.cls-13_note-taking-10{fill:#231f20;}.cls-14_note-taking-10{fill:#c14834;}.cls-15_note-taking-10{fill:#fff;}</style><linearGradient id="linear-gradient-note-taking-10" x1="770.15" y1="2911.6" x2="772.26" y2="2897.14" gradientTransform="translate(-536.89 3063.48) scale(1 -1)" gradientUnits="userSpaceOnUse"><stop offset="0" stop-color="#010101" stop-opacity="0"/><stop offset=".47" stop-color="#010101" stop-opacity=".47"/><stop offset=".95" stop-color="#010101"/></linearGradient><linearGradient id="linear-gradient-2-note-taking-10" x1="780.97" y1="2943.01" x2="807.55" y2="2943.01" xlink:href="#linear-gradient-note-taking-10"/><linearGradient id="linear-gradient-3-note-taking-10" x1="754.45" y1="2893.65" x2="694.05" y2="2870.93" xlink:href="#linear-gradient-note-taking-10"/><linearGradient id="linear-gradient-4-note-taking-10" x1="763.69" y1="2740.35" x2="804.04" y2="2740.35" xlink:href="#linear-gradient-note-taking-10"/><linearGradient id="linear-gradient-5-note-taking-10" x1="790.58" y1="2732.56" x2="832.91" y2="2732.56" xlink:href="#linear-gradient-note-taking-10"/><linearGradient id="linear-gradient-6-note-taking-10" x1="809.64" y1="2866.71" x2="728.78" y2="2881.65" xlink:href="#linear-gradient-note-taking-10"/><linearGradient id="linear-gradient-7-note-taking-10" x1="797.69" y1="2863.7" x2="873.02" y2="2846.17" xlink:href="#linear-gradient-note-taking-10"/><linearGradient id="linear-gradient-8-note-taking-10" x1="791.24" y1="2947.98" x2="850.06" y2="2947.98" xlink:href="#linear-gradient-note-taking-10"/><linearGradient id="linear-gradient-9-note-taking-10" x1="769.66" y1="2664.22" x2="767.71" y2="2623.3" xlink:href="#linear-gradient-note-taking-10"/><linearGradient id="linear-gradient-10-note-taking-10" x1="814.02" y1="2655.8" x2="814.02" y2="2609.53" xlink:href="#linear-gradient-note-taking-10"/></defs><g id="background_note-taking-10"><path class="cls-12_note-taking-10 targetColor" d="M476.97,372.62c-4.2,11.31-9.45,22.6-17.96,31.15-7.02,7.05-15.53,11.62-24.8,14.94-15.3,5.47-32.57,7.54-48.51,11.56-26,6.61-50.02,19.39-70.02,37.26-7.99,7.16-15.51,15.26-25.21,19.79-7.54,3.56-15.99,4.71-24.29,5.5-53.74,5-107.85-4.24-156.89-26.78-13.66-6.3-27.16-13.88-36.92-25.36-6.47-7.62-11-16.58-15.22-25.61-.56-1.1-1.05-2.17-1.55-3.25-18.75-40.17-37.65-81.13-43.7-125.02-6.05-43.88,2.67-92.03,33.11-124.24,20.82-22.06,49.89-34.92,70.68-56.95,18.16-19.31,29.1-44.67,48.2-63.03,48.33-46.64,109.26-18.91,162.42,1.05,56.22,21.1,104.97,62.15,134.35,114.59,36.12,64.61,42.27,145.12,16.34,214.39Z" style="fill: rgb(4, 169, 60);"/><path class="cls-1_note-taking-10 targetColor" d="M434.2,418.71c-15.3,5.47-32.57,7.54-48.51,11.56-26,6.61-50.02,19.39-70.02,37.26-7.99,7.16-15.51,15.26-25.21,19.79-7.54,3.56-15.99,4.71-24.29,5.5-53.74,5-107.85-4.24-156.89-26.78-13.66-6.3-27.16-13.88-36.92-25.36-6.47-7.62-11-16.58-15.22-25.61,28.47.35,56.94.65,85.42.9,56.73.48,113.46.78,170.19.9,28.09.06,56.19.08,84.29.06,7.72-.03,26.61-1.03,37.17,1.76Z" style="fill: rgb(4, 169, 60);"/><path class="cls-1_note-taking-10 targetColor" d="M137.53,422.31c-8.3.68-18.84,3.68-19.45,11.99,33.01,7.5,66.99,9.45,100.85,11.08,15.14.74,30.31,1.42,45.44.45,23.91-1.54,47.38-7.18,69.39-16.67-65.45-5.95-130.48-12.24-196.23-6.85Z" style="fill: rgb(4, 169, 60);"/></g><g id="character_note-taking-10"><path class="cls-16_note-taking-10 targetColor" d="M231.75,156.21l13.23-2.62s1.15-.16.82,1.3l-18.84,5.03-3.49.89-1.54-2.76,9.82-1.85Z" style="fill: rgb(4, 169, 60);"/><path class="cls-2_note-taking-10" d="M231.75,156.21l13.23-2.62s1.15-.16.82,1.3l-18.84,5.03-3.49.89-1.54-2.76,9.82-1.85Z"/><path class="cls-13_note-taking-10" d="M250.14,91.4c-2.55,3.78-2.96,8.7-2.1,13.19.37,1.59.65,3.2.83,4.82.37,5.89-3.6,11.17-4.53,17-.89,5.65,1.21,11.45,4.51,16.13,3.3,4.67,7.73,8.4,12.11,12.11,4.2-4.39,5.64-10.73,5.76-16.81.12-6.08-.96-12.06-1.12-18.11-.17-2.88.13-5.77.88-8.55,1.5-4.99,5.25-9.79,3.98-14.83-.78-2.93-3.15-5.13-5.38-7.15-2.55-2.3-4.35-3.46-7.93-2.66-2.87.67-5.38,2.41-7.01,4.86Z"/><path class="cls-5_note-taking-10" d="M250.14,91.4c-2.55,3.78-2.96,8.7-2.1,13.19.37,1.59.65,3.2.83,4.82.37,5.89-3.6,11.17-4.53,17-.89,5.65,1.21,11.45,4.51,16.13,3.3,4.67,7.73,8.4,12.11,12.11,4.2-4.39,5.64-10.73,5.76-16.81.12-6.08-.96-12.06-1.12-18.11-.17-2.88.13-5.77.88-8.55,1.5-4.99,5.25-9.79,3.98-14.83-.78-2.93-3.15-5.13-5.38-7.15-2.55-2.3-4.35-3.46-7.93-2.66-2.87.67-5.38,2.41-7.01,4.86Z"/><path class="cls-14_note-taking-10" d="M251.23,198.03l-52.53-19.19,2.98,8.82s38.87,29,48.13,27.31c9.26-1.68,1.42-16.95,1.42-16.95Z"/><path class="cls-15_note-taking-10" d="M196.62,177.56l-12.27-28.72c-1.28-2.99.1-6.44,3.09-7.72.43-.19.89-.32,1.35-.4l21.5-3.61c2.79-.47,5.52,1.11,6.5,3.76l20.75,56.04c1.13,3.06-.44,6.45-3.5,7.58-.37.14-.76.24-1.16.3l-19.13,2.84c-2.68.39-5.28-1.1-6.3-3.6l-10.84-26.45Z"/><path class="cls-16_note-taking-10 targetColor" d="M194.74,177.9l-11.63-27.23c-1.22-2.84.1-6.12,2.94-7.34.41-.17.83-.3,1.27-.37l20.39-3.42c2.65-.44,5.23,1.06,6.17,3.57l19.67,53.14c1.07,2.89-.4,6.1-3.29,7.17-.36.13-.73.23-1.11.29l-18.14,2.72c-2.55.38-5.02-1.03-6-3.41l-10.25-25.11Z" style="fill: rgb(4, 169, 60);"/><path class="cls-6_note-taking-10" d="M194.74,177.9l-11.63-27.23c-1.22-2.84.1-6.12,2.94-7.34.41-.17.83-.3,1.27-.37l20.39-3.42c2.65-.44,5.23,1.06,6.17,3.57l19.67,53.14c1.07,2.89-.4,6.1-3.29,7.17-.36.13-.73.23-1.11.29l-18.14,2.72c-2.55.38-5.02-1.03-6-3.41l-10.25-25.11Z"/><path class="cls-17_note-taking-10" d="M202.15,186.16c0,1.82-1.47,3.29-3.28,3.29-1.82,0-3.29-1.47-3.29-3.28,0-1.01.46-1.96,1.25-2.59"/><path class="cls-17_note-taking-10" d="M205.4,194.11c0,1.82-1.47,3.29-3.28,3.29-1.82,0-3.29-1.47-3.29-3.28,0-1.01.46-1.96,1.25-2.59"/><path class="cls-17_note-taking-10" d="M208.65,202.08c0,1.82-1.48,3.29-3.29,3.28-1.82,0-3.29-1.48-3.28-3.29,0-1,.46-1.95,1.25-2.58"/><path class="cls-16_note-taking-10 targetColor" d="M257.76,148.14l-24.93,45.28,15.57,6.72s12.07-48.09,9.36-52Z" style="fill: rgb(4, 169, 60);"/><path class="cls-14_note-taking-10" d="M294.9,411.66l.89,12.46c-2.16,1.28-4.66,1.87-7.16,1.67-3.8-.48-11.38-8.27-13.21-7.89l.06-3.71"/><path class="cls-14_note-taking-10" d="M250.54,402.76l.89,12.46c-2.16,1.28-4.66,1.87-7.16,1.67-3.79-.48-11.38-8.27-13.21-7.89l.07-3.71"/><path class="cls-13_note-taking-10" d="M253.69,244.49s6.67,88.73,7.42,90.19,14.29,80.74,14.29,80.74c0,0,9.45,6.06,20.62-1.21l-8.81-81.66,4.09-77.88s-31.87-13.09-37.6-10.18Z"/><path class="cls-13_note-taking-10" d="M241.46,237.2s-15.19,84.57-14.64,86.15c.55,1.58,3.73,83.4,3.73,83.4,0,0,8.53,5.75,20.54,0l1.89-82.11,14.18-76.69s-19.63-12.88-25.7-10.75Z"/><path class="cls-4_note-taking-10" d="M241.46,237.2s-15.19,84.57-14.64,86.15c.55,1.58,3.73,83.4,3.73,83.4,0,0,8.53,5.75,20.54,0l1.89-82.11,14.18-76.69s-19.63-12.88-25.7-10.75Z"/><path class="cls-13_note-taking-10" d="M253.69,244.49s6.67,88.73,7.42,90.19,14.29,80.74,14.29,80.74c0,0,9.45,6.06,20.62-1.21l-8.81-81.66,4.09-77.88s-31.87-13.09-37.6-10.18Z"/><path class="cls-10_note-taking-10" d="M253.69,244.49s6.67,88.73,7.42,90.19,14.29,80.74,14.29,80.74c0,0,9.45,6.06,20.62-1.21l-8.81-81.66,4.09-77.88s-31.87-13.09-37.6-10.18Z"/><path class="cls-15_note-taking-10" d="M297.88,141.19s-16-8.01-21.82-7.28c-10.59,1.32-14.91,12.32-17.86,21.16-9.94,29.98-6.91,60.52-14.89,90.86,0,0,2.17,10.9,16,13.09,13.83,2.19,7.99-67.65,13.09-81.46,5.1-13.81,31.3-33.46,25.48-36.37Z"/><path class="cls-16_note-taking-10 targetColor" d="M273.7,134.44s-12.19,3.15-15.09,8.19c0,2.71-3.1,7.45-3.8,10.34-3.45,14.21-8.66,27.81-13.59,41.38-3.27,9.32-5.5,18.97-6.66,28.79-.64,4.98-.58,10.16-1.4,15.09s-.21,5.95,3.55,9.12c.64.54,10.68,8.46,10.88,7.2,2.98-18.11,5.96-36.22,8.93-54.33,1.34-8.2,2.2-15.99,4.48-24.07,2.28-7.88,5.06-15.6,8.33-23.11.59-1.39,8.27-19.57,4.37-18.58Z" style="fill: rgb(4, 169, 60);"/><path class="cls-16_note-taking-10 targetColor" d="M295.56,143.94c-4.29-3.15-8.18-2.01-11.97,1.87-2.91,3-4.64,6.93-6.24,10.79-4.75,11.06-8.54,22.5-11.32,34.21-1.18,5.25-2.61,10.2-3.29,15.62-.74,5.8-1.24,11.63-2.22,17.4-1.29,7.67-3.37,15.76-3.37,23.53,0,9.45.72,18.19,15.28,19.65,14.55,1.46,23.6.29,23.6.29,0,0,12.05-90.49,9.86-106.49-.51-3.74-.79-7.59-3.44-10.51-1.98-2.15-4.1-4.15-6.36-6-.18-.11-.35-.23-.54-.36Z" style="fill: rgb(4, 169, 60);"/><path class="cls-11_note-taking-10" d="M273.7,134.44s-12.19,3.15-15.09,8.19c0,2.71-3.1,7.45-3.8,10.34-3.45,14.21-8.66,27.81-13.59,41.38-3.27,9.32-5.5,18.97-6.66,28.79-.64,4.98-.58,10.16-1.4,15.09s-.21,5.95,3.55,9.12c.64.54,10.68,8.46,10.88,7.2,2.98-18.11,5.96-36.22,8.93-54.33,1.34-8.2,2.2-15.99,4.48-24.07,2.28-7.88,5.06-15.6,8.33-23.11.59-1.39,8.27-19.57,4.37-18.58Z"/><path class="cls-9_note-taking-10" d="M295.56,143.94c-4.29-3.15-8.18-2.01-11.97,1.87-2.91,3-4.64,6.93-6.24,10.79-4.75,11.06-8.54,22.5-11.32,34.21-1.18,5.25-2.61,10.2-3.29,15.62-.74,5.8-1.24,11.63-2.22,17.4-1.29,7.67-3.37,15.76-3.37,23.53,0,9.45.72,18.19,15.28,19.65,14.55,1.46,23.6.29,23.6.29,0,0,12.05-90.49,9.86-106.49-.51-3.74-.79-7.59-3.44-10.51-1.98-2.15-4.1-4.15-6.36-6-.18-.11-.35-.23-.54-.36Z"/><path class="cls-14_note-taking-10" d="M256.65,93.31c-4.11,6.56-4.52,15.7-4.97,23.2-.4,6.47-1.75,17.39,6.8,19.55,1.81.46,3.71.06,5.56.18.26,0,.51.05.75.17.39.32.62.78.64,1.28.22,1.69.63,3.35,1.21,4.96,1.28,3.02,4.99,5.08,8.1,3.15,2.67-1.63,3.41-6.51,4.2-9.23,1.66-5.87-3.46-13.45-4.31-19.42-1.46-10.18-2.91-21.82-8.01-25.45-4.55-3.2-7.73-1.94-9.97,1.63Z"/><path class="cls-13_note-taking-10" d="M255.5,90.46c1.98,3.59,5.99,7.15,8.11,9.72,3.97,4.79,8.6,9.56,9.75,15.93.75,4.14-.23,8.4-.78,12.54-.31,2.39-.48,4.8-.5,7.22-.08,1.26.06,2.52.41,3.73,1.46,4.37,5.84,5.98,10.13,6.45,3.57.4,7.21.12,10.76.7,6.68,1.16,12.47,5.28,15.76,11.21,4.81-5.72,5.46-13.86,1.62-20.27-3.44-5.45-9.94-8.99-11.56-15.21-1.62-6.22,2.03-12.2,2.98-18.43,1.19-7.59-1.87-15.5-7.23-21.01-5.36-5.52-12.81-8.68-20.41-9.7-2.76-.47-5.58-.38-8.3.28-2.46.76-4.72,2.05-6.64,3.76-2.69,2.3-5,5.4-5.18,8.93-.02,1.45.35,2.88,1.08,4.14Z"/><path class="cls-7_note-taking-10" d="M255.5,90.46c1.98,3.59,5.99,7.15,8.11,9.72,3.97,4.79,8.6,9.56,9.75,15.93.75,4.14-.23,8.4-.78,12.54-.31,2.39-.48,4.8-.5,7.22-.08,1.26.06,2.52.41,3.73,1.46,4.37,5.84,5.98,10.13,6.45,3.57.4,7.21.12,10.76.7,6.68,1.16,12.47,5.28,15.76,11.21,4.81-5.72,5.46-13.86,1.62-20.27-3.44-5.45-9.94-8.99-11.56-15.21-1.62-6.22,2.03-12.2,2.98-18.43,1.19-7.59-1.87-15.5-7.23-21.01-5.36-5.52-12.81-8.68-20.41-9.7-2.76-.47-5.58-.38-8.3.28-2.46.76-4.72,2.05-6.64,3.76-2.69,2.3-5,5.4-5.18,8.93-.02,1.45.35,2.88,1.08,4.14Z"/><path class="cls-14_note-taking-10" d="M305.97,222.43c-12-1.9-60.72-49.38-60.72-49.38,0,0,5.43-8.4,6.41-8.2.59.15,24.05,14.71,42.52,26.26l22.18,13.84c1.28.87,2.14,2.24,2.35,3.77,1.22,5.86-3.35,15.2-12.73,13.71Z"/><path class="cls-16_note-taking-10 targetColor" d="M320.44,201.31c0,2.67,0,5.46-1.49,7.71-.07-.09-.15-.17-.24-.24-.21-1.53-1.07-2.9-2.35-3.77l-22.18-13.89c-3.59-10.24-7.35-20.86-7.09-31.38-.01-3.77,1.69-7.33,4.63-9.69,11.49-8.58,23.67,14,26.05,22.52,2.64,9.27,2.67,19.03,2.67,28.73Z" style="fill: rgb(4, 169, 60);"/><polygon class="cls-16_note-taking-10 targetColor" points="267.15 225.09 290.87 238.74 289.21 245.74 265.29 231.09 267.15 225.09" style="fill: rgb(4, 169, 60);"/><path class="cls-16_note-taking-10 targetColor" d="M238.63,233.15c.34-.74,9.84-8.06,9.84-8.06v-5.99l-9.84,7.03v7.02Z" style="fill: rgb(4, 169, 60);"/><path class="cls-14_note-taking-10" d="M239.94,156.04c-3.03-.82-6.17-1.16-9.3-.99-1.71,0-3.75.17-4.64,1.63-.6,1.18-.48,2.6.3,3.67.78,1.04,1.72,1.94,2.79,2.68,1.16.86,2.19,1.88,3.07,3.03.65.9,1.15,1.92,1.86,2.77,1.89,2.25,5,2.98,7.92,3.35,1.43.05,2.83.43,4.1,1.11.31.26.66.46,1.05.58.33.04.67,0,.98-.14,3.86-1.38,5.4-6.25,2.74-9.29-3.02-3.46-6.41-6.92-10.87-8.4Z"/><path class="cls-14_note-taking-10" d="M201.4,188.07c-3.63-.75-7.5-1.62-10.09-4.29-1.34-1.5-2.41-3.22-3.15-5.08-.69-1.53-1.37-3.09-2-4.65-.95-1.47-.59-3.43.83-4.46,1.51-1.6,3.38-3.26,5.58-3.15.89.1,1.76.36,2.56.77,2.98,1.28,6.22,2.78,7.61,5.72.58,1.43.9,2.96.95,4.51.19,2.3.33,4.59.41,6.89.08,2.16-.16,4.3-2.7,3.76Z"/><path class="cls-16_note-taking-10 targetColor" d="M214.4,416.67c-1.12.6-1.96,1.63-2.32,2.85-.11,1.38.63,2.68,1.87,3.29,1.22.58,2.55.9,3.91.92,8.95.77,17.95.85,26.92.26,2.1-.14,4.37-.42,5.72-2.02,1.34-1.6,1.2-4.27.86-6.49-.17-1.05-.47-2.33-1.49-2.7-.7-.16-1.44-.1-2.1.19-3.03.83-6.24.65-9.16-.5-2.54-1.05-4.78-3.31-7.64-3.32-5.4-.08-12.32,4.51-16.56,7.52Z" style="fill: rgb(4, 169, 60);"/><path class="cls-16_note-taking-10 targetColor" d="M259.69,424.66c-1.12.61-1.95,1.63-2.31,2.85-.11,1.38.63,2.68,1.87,3.3,1.22.57,2.56.89,3.91.91,8.95.77,17.95.85,26.92.26,2.1-.14,4.37-.42,5.72-2.02,1.34-1.6,1.2-4.27.86-6.49-.17-1.05-.47-2.33-1.49-2.7-.7-.16-1.44-.1-2.1.19-3.03.83-6.24.65-9.16-.5-2.54-1.05-4.78-3.31-7.64-3.32-5.38-.03-12.32,4.56-16.57,7.52Z" style="fill: rgb(4, 169, 60);"/><path class="cls-8_note-taking-10" d="M214.4,416.67c-1.12.6-1.96,1.63-2.32,2.85-.11,1.38.63,2.68,1.87,3.29,1.22.58,2.55.9,3.91.92,8.95.77,17.95.85,26.92.26,2.1-.14,4.37-.42,5.72-2.02,1.34-1.6,1.2-4.27.86-6.49-.17-1.05-.47-2.33-1.49-2.7-.7-.16-1.44-.1-2.1.19-3.03.83-6.24.65-9.16-.5-2.54-1.05-4.78-3.31-7.64-3.32-5.4-.08-12.32,4.51-16.56,7.52Z"/><path class="cls-3_note-taking-10" d="M259.69,424.66c-1.12.61-1.95,1.63-2.31,2.85-.11,1.38.63,2.68,1.87,3.3,1.22.57,2.56.89,3.91.91,8.95.77,17.95.85,26.92.26,2.1-.14,4.37-.42,5.72-2.02,1.34-1.6,1.2-4.27.86-6.49-.17-1.05-.47-2.33-1.49-2.7-.7-.16-1.44-.1-2.1.19-3.03.83-6.24.65-9.16-.5-2.54-1.05-4.78-3.31-7.64-3.32-5.38-.03-12.32,4.56-16.57,7.52Z"/><path class="cls-17_note-taking-10" d="M189.17,154.34c0,1.82-1.48,3.29-3.29,3.28-1.82,0-3.29-1.48-3.28-3.29,0-1,.46-1.95,1.25-2.58"/><path class="cls-17_note-taking-10" d="M192.42,162.29c0,1.82-1.47,3.29-3.28,3.29-1.82,0-3.29-1.47-3.29-3.28,0-1.01.46-1.96,1.25-2.59"/></g></svg>