<svg id="_0190_seo" xmlns="http://www.w3.org/2000/svg" xmlns:xlink="http://www.w3.org/1999/xlink" viewBox="0 0 500 500" data-imageid="seo-92" imageName="SEO" class="illustrations_image" style="width: 145px;"><defs><style>.cls-1_seo-92{fill:url(#linear-gradient);}.cls-1_seo-92,.cls-2_seo-92,.cls-3_seo-92,.cls-4_seo-92,.cls-5_seo-92,.cls-6_seo-92,.cls-7_seo-92,.cls-8_seo-92,.cls-9_seo-92,.cls-10_seo-92,.cls-11_seo-92,.cls-12_seo-92{stroke-width:0px;}.cls-13_seo-92{opacity:.37;}.cls-14_seo-92{opacity:.56;}.cls-2_seo-92{fill:url(#linear-gradient-4-seo-92);}.cls-3_seo-92{fill:url(#linear-gradient-2-seo-92);}.cls-4_seo-92{fill:url(#linear-gradient-3-seo-92);}.cls-5_seo-92{fill:url(#linear-gradient-8-seo-92);}.cls-6_seo-92{fill:url(#linear-gradient-9-seo-92);}.cls-7_seo-92{fill:url(#linear-gradient-7-seo-92);}.cls-8_seo-92{fill:url(#linear-gradient-5-seo-92);}.cls-9_seo-92{fill:url(#linear-gradient-6-seo-92);}.cls-10_seo-92{isolation:isolate;opacity:.24;}.cls-10_seo-92,.cls-12_seo-92{fill:#68e1fd;}.cls-11_seo-92{fill:#fff;}</style><linearGradient id="linear-gradient-seo-92" x1="844.32" y1="2007.61" x2="686.26" y2="1970.08" gradientTransform="translate(-472.97 2225) scale(1 -1)" gradientUnits="userSpaceOnUse"><stop offset="0" stop-color="#fff" stop-opacity="0"/><stop offset=".95" stop-color="#fff"/></linearGradient><linearGradient id="linear-gradient-2-seo-92" x1="822.23" y1="2005.02" x2="798.37" y2="1943.39" gradientTransform="translate(-472.97 2225) scale(1 -1)" gradientUnits="userSpaceOnUse"><stop offset="0" stop-color="#231f20" stop-opacity="0"/><stop offset="1" stop-color="#231f20"/></linearGradient><linearGradient id="linear-gradient-3-seo-92" x1="814.04" y1="1987.34" x2="873.69" y2="2101.78" xlink:href="#linear-gradient-seo-92"/><linearGradient id="linear-gradient-4-seo-92" x1="820.73" y1="2007.22" x2="831.66" y2="2070.59" xlink:href="#linear-gradient-seo-92"/><linearGradient id="linear-gradient-5-seo-92" x1="825.5" y1="2033.64" x2="833.7" y2="2050.23" xlink:href="#linear-gradient-2-seo-92"/><linearGradient id="linear-gradient-6-seo-92" x1="818.64" y1="2066.74" x2="845.14" y2="2066.74" xlink:href="#linear-gradient-seo-92"/><linearGradient id="linear-gradient-7-seo-92" x1="806.94" y1="2046.65" x2="820.7" y2="2046.65" xlink:href="#linear-gradient-2-seo-92"/><linearGradient id="linear-gradient-8-seo-92" x1="-3597.27" y1="2581.76" x2="-3583.5" y2="2581.76" gradientTransform="translate(-3730.05 1825.59) rotate(-166.1)" xlink:href="#linear-gradient-2-seo-92"/><linearGradient id="linear-gradient-9-seo-92" x1="828.48" y1="2117.37" x2="836.14" y2="2117.37" gradientTransform="translate(-471 2272.74) scale(1 -1)" xlink:href="#linear-gradient-2-seo-92"/></defs><g id="background_seo-92"><path class="cls-10_seo-92 targetColor" d="M472.67,236.38c-7.17,24.09-20.38,45.86-33.15,67.49-5.88,9.9-11.84,20.23-13.1,31.67-.93,8.5.77,17.1.16,25.6-1.72,24.31-22.51,44.11-45.77,51.41-23.26,7.3-48.46,4.37-72.33-.66-23.87-5.02-47.47-12.07-71.83-12.89-17.53-.59-34.95,2.04-52.27,4.74-21,3.29-42.45,6.58-63.36,2.89-20.92-3.69-41.58-15.77-49.71-35.43-10.12-24.44,1.32-52.88-4.93-78.59-1.83-7.61-5.12-14.62-9-21.42-2.91-5.14-6.17-10.14-9.4-15.12-5.64-8.76-11.18-17.63-14.59-27.38-8.95-25.55-1.3-56.08,18.67-74.4,36.16-33.23,91.83-22,133.48-43.72,45.95-23.99,84.16-50.2,138.6-27.35,15.06,6.33,28.7,15.71,43.82,21.95,12.68,5.26,26.24,8.13,39.29,12.41l1.18.41c6.42,2.15,12.69,4.73,18.75,7.73,17.1,8.55,32.22,20.71,41.2,37.33,11.98,22.08,11.45,49.22,4.3,73.32Z" style="fill: rgb(0, 204, 143);"/><path class="cls-10_seo-92 targetColor" d="M417.86,121.7l-.75,54.05-13.23,7.27-3.35-40.26-134.28,89.42-70.02-58.3-138.86,97.31c-2.91-5.14-6.17-10.14-9.4-15.12l149.18-104.62,70.3,58.59,122.07-79.39c.13.04-35.04-12.3-35.04-12.3,1.04-.74,7.43-7.89,8.55-8.7,0,0,45.14,8.26,45.37,8.34,6.41,2.14,3.39.7,9.46,3.71Z" style="fill: rgb(0, 204, 143);"/></g><g id="SEO_seo-92"><g class="cls-13_seo-92"><path class="cls-12_seo-92 targetColor" d="M298.24,234.08c0-16.11,4.13-28.65,12.39-37.62,8.26-8.97,19.77-13.46,34.53-13.46s26.77,4.41,34.95,13.22c8.18,8.82,12.27,21.17,12.28,37.05,0,11.53-1.79,20.99-5.37,28.37-3.36,7.14-8.75,13.13-15.5,17.23-6.75,4.09-15.17,6.13-25.26,6.13s-18.72-1.77-25.44-5.32c-6.72-3.55-12.15-9.15-16.3-16.8-4.19-7.67-6.29-17.27-6.29-28.81ZM326.32,234.22c0,9.96,1.71,17.12,5.12,21.47,3.41,4.35,8.05,6.52,13.91,6.53,6.03,0,10.7-2.13,14.01-6.4,3.31-4.27,4.96-11.91,4.96-22.95,0-9.29-1.72-16.08-5.17-20.38-3.45-4.3-8.13-6.43-14.04-6.38-5.32-.15-10.38,2.27-13.6,6.51-3.45,4.35-5.17,11.55-5.17,21.61h0Z" style="fill: rgb(0, 204, 143);"/></g><g class="cls-13_seo-92"><path class="cls-12_seo-92 targetColor" d="M115.77,251.58l26.87-1.68c.58,4.38,1.77,7.71,3.56,9.97,2.91,3.7,7.07,5.55,12.49,5.55,4.03,0,7.14-.95,9.32-2.84,2.18-1.89,3.27-4.09,3.29-6.58,0-2.37-1.04-4.49-3.12-6.36-2.08-1.87-6.9-3.64-14.47-5.3-12.38-2.78-21.21-6.48-26.49-11.09-5.2-4.36-8.14-10.85-7.98-17.64.01-4.74,1.44-9.37,4.08-13.31,2.72-4.18,6.81-7.46,12.28-9.86,5.46-2.4,12.95-3.59,22.47-3.58,11.68,0,20.58,2.17,26.71,6.52,6.13,4.34,9.78,11.25,10.94,20.72l-26.64,1.57c-.71-4.12-2.2-7.11-4.46-8.98-2.26-1.87-5.39-2.8-9.38-2.81-3.28,0-5.75.7-7.42,2.09-1.58,1.21-2.5,3.09-2.49,5.08.04,1.56.8,3.02,2.06,3.95,1.32,1.2,4.47,2.32,9.47,3.37,12.34,2.66,21.19,5.35,26.52,8.07,5.34,2.72,9.22,6.1,11.65,10.13,2.44,4.08,3.69,8.75,3.63,13.51.03,5.77-1.67,11.41-4.87,16.21-3.32,5.01-8.04,8.93-13.58,11.25-5.82,2.56-13.15,3.83-22.01,3.83-15.53,0-26.3-2.99-32.28-8.98-5.99-5.98-9.38-13.59-10.17-22.82Z" style="fill: rgb(0, 204, 143);"/><path class="cls-12_seo-92 targetColor" d="M212.82,190.43h75.67v19.51h-47.37v14.52h43.94v18.64h-43.94v18.02h48.74v20.69h-77.04v-91.38Z" style="fill: rgb(0, 204, 143);"/></g><path class="cls-11_seo-92" d="M116.52,237.05l26.87-1.68c.58,4.38,1.76,7.71,3.55,9.97,2.91,3.7,7.08,5.55,12.49,5.55,4.03,0,7.13-.95,9.32-2.84,2.18-1.89,3.28-4.09,3.29-6.58,0-2.37-1.04-4.49-3.12-6.36-2.08-1.87-6.9-3.64-14.47-5.3-12.39-2.78-21.22-6.48-26.49-11.09-5.2-4.36-8.14-10.85-7.98-17.64.01-4.74,1.44-9.37,4.08-13.31,2.72-4.17,6.82-7.46,12.28-9.86,5.47-2.4,12.96-3.6,22.47-3.58,11.68,0,20.58,2.17,26.71,6.52,6.13,4.34,9.78,11.25,10.93,20.72l-26.62,1.56c-.7-4.12-2.19-7.11-4.46-8.98-2.27-1.87-5.4-2.8-9.38-2.81-3.29,0-5.76.7-7.42,2.09-1.58,1.21-2.5,3.09-2.5,5.08.04,1.56.8,3.02,2.06,3.95,1.32,1.21,4.47,2.33,9.47,3.37,12.34,2.66,21.18,5.35,26.52,8.07,5.34,2.72,9.23,6.1,11.66,10.13,2.44,4.08,3.7,8.77,3.64,13.53.03,5.77-1.67,11.41-4.86,16.21-3.32,5.01-8.05,8.92-13.59,11.25-5.82,2.56-13.15,3.84-22,3.83-15.54,0-26.31-2.99-32.29-8.98-5.98-5.98-9.38-13.59-10.19-22.82Z"/><path class="cls-11_seo-92" d="M213.57,175.9h75.67v19.51h-47.37v14.52h43.95v18.64h-43.95v18.02h48.75v20.67h-77.05v-91.35Z"/><path class="cls-11_seo-92" d="M380.69,186.46c-8-8.28-19.38-12.43-34.13-12.45-14.41,0-25.65,4.22-33.74,12.66-8.05,8.48-12.1,20.26-12.1,35.43,0,10.86,2.04,19.9,6.12,27.12,4.08,7.22,9.4,12.5,15.96,15.83,6.54,3.34,14.82,5.01,24.84,5,9.85,0,18.07-1.93,24.65-5.8,6.52-3.8,11.78-9.43,15.12-16.2,3.46-6.97,5.2-15.88,5.21-26.72,0-14.93-3.97-26.55-11.94-34.87ZM328.15,222.24c0-9.48,1.67-16.26,5-20.34,3.03-3.81,7.62-6.05,12.49-6.09.27-.04.55-.06.82-.05,5.76,0,10.34,2.01,13.72,6.04,2.02,2.59,3.4,5.62,4.02,8.84.73,3.39,1.08,6.86,1.03,10.33,0,2.33-.08,4.47-.24,6.48-.56,6.97-2.1,12.01-4.6,15.12-3.23,4-7.79,6-13.69,6.01-5.7,0-10.23-2.05-13.58-6.14-3.29-4.08-4.95-10.7-4.98-19.94v-.26Z"/><path class="cls-1_seo-92" d="M354.32,206.37c-.74,1.63-1.27,3.35-1.59,5.12-.24,1.75-.04,3.53-.2,5.26-.31,3.56-2.03,6.83-2.98,10.28-1.35,4.92-1.12,10.11-.88,15.2l5.83-18.77c.6-1.71,1.04-3.47,1.32-5.26.14-2.03.13-4.07-.03-6.1-.07-3.56.17-7.12.72-10.63-1.01,1.4-1.54,3.28-2.19,4.9Z"/></g><g id="bubble_seo-92"><rect class="cls-10_seo-92 targetColor" x="384.71" y="170.45" width="66.2" height="23.19" rx="6.51" ry="6.51" style="fill: rgb(0, 204, 143);"/><rect class="cls-10_seo-92 targetColor" x="318.06" y="351.48" width="94.9" height="33.24" rx="9.33" ry="9.33" style="fill: rgb(0, 204, 143);"/><rect class="cls-10_seo-92 targetColor" x="70.16" y="274.31" width="86.42" height="30.61" rx="8.54" ry="8.54" style="fill: rgb(0, 204, 143);"/><rect class="cls-10_seo-92 targetColor" x="97.55" y="347.63" width="67.44" height="26.16" rx="6.98" ry="6.98" style="fill: rgb(0, 204, 143);"/><rect class="cls-11_seo-92" x="321.64" y="356.47" width="91.21" height="31.95" rx="8.97" ry="8.97"/><path class="cls-10_seo-92 targetColor" d="M332.46,365.23h71.11c.76,0,1.37.62,1.37,1.37h0c0,.76-.62,1.37-1.37,1.37h-71.11c-.76,0-1.37-.62-1.37-1.37h0c0-.76.62-1.37,1.37-1.37Z" style="fill: rgb(0, 204, 143);"/><rect class="cls-10_seo-92 targetColor" x="331.08" y="372.83" width="51.98" height="2.6" rx="1.12" ry="1.12" style="fill: rgb(0, 204, 143);"/><rect class="cls-11_seo-92" x="61.98" y="267.39" width="91.21" height="31.95" rx="8.97" ry="8.97"/><path class="cls-10_seo-92 targetColor" d="M72.81,276.15h71.11c.76,0,1.37.62,1.37,1.37h0c0,.76-.62,1.37-1.37,1.37h-71.11c-.76,0-1.37-.62-1.37-1.37h0c0-.76.62-1.37,1.37-1.37Z" style="fill: rgb(0, 204, 143);"/><rect class="cls-10_seo-92 targetColor" x="71.43" y="283.75" width="51.98" height="2.6" rx="1.12" ry="1.12" style="fill: rgb(0, 204, 143);"/><rect class="cls-11_seo-92" x="95.97" y="350.94" width="66.2" height="23.19" rx="6.51" ry="6.51"/><path class="cls-10_seo-92 targetColor" d="M103.83,357.3h51.61c.55,0,1,.45,1,1h0c0,.55-.45,1-1,1h-51.61c-.55,0-1-.45-1-1h0c0-.55.45-1,1-1Z" style="fill: rgb(0, 204, 143);"/><rect class="cls-10_seo-92 targetColor" x="102.83" y="362.81" width="37.73" height="1.89" rx=".82" ry=".82" style="fill: rgb(0, 204, 143);"/><rect class="cls-11_seo-92" x="386.89" y="163.24" width="66.2" height="23.19" rx="6.51" ry="6.51"/><path class="cls-10_seo-92 targetColor" d="M394.74,169.6h51.61c.55,0,1,.45,1,1h0c0,.55-.45,1-1,1h-51.61c-.55,0-1-.45-1-1h0c0-.55.45-1,1-1Z" style="fill: rgb(0, 204, 143);"/><rect class="cls-10_seo-92 targetColor" x="393.74" y="175.11" width="37.73" height="1.89" rx=".82" ry=".82" style="fill: rgb(0, 204, 143);"/></g><g id="search_bar_seo-92"><rect class="cls-11_seo-92" x="120.51" y="310.21" width="261.44" height="30.82" rx="9.49" ry="9.49"/><path class="cls-10_seo-92 targetColor" d="M376.39,309.62c-1.26-.5-2.59-.75-3.95-.74h-242.44c-5.97,0-10.81,4.83-10.83,10.8v11.84c.01,5.97,4.86,10.81,10.83,10.81h242.47c5.95-.04,10.77-4.86,10.8-10.81v-11.84c0-4.45-2.74-8.45-6.88-10.06ZM380.63,331.54c-.01,4.5-3.66,8.15-8.16,8.16h-242.47c-4.51,0-8.17-3.65-8.19-8.16v-11.84c.02-4.51,3.68-8.15,8.19-8.15h242.47c4.5.01,8.15,3.65,8.16,8.15v11.84Z" style="fill: rgb(0, 204, 143);"/><g class="cls-14_seo-92"><path class="cls-12_seo-92 targetColor" d="M129.88,328.58c.53.33,1.14.51,1.77.53.97,0,1.43-.49,1.43-1.1s-.38-.99-1.37-1.35c-1.32-.47-1.97-1.2-1.97-2.08,0-1.19.96-2.16,2.54-2.16.63,0,1.26.15,1.81.45l-.34.98c-.45-.28-.97-.43-1.51-.43-.8,0-1.24.45-1.24,1.01s.44.88,1.4,1.25c1.28.48,1.93,1.12,1.93,2.22,0,1.32-1.01,2.21-2.75,2.21-.72.01-1.44-.16-2.07-.51l.36-1.02Z" style="fill: rgb(0, 204, 143);"/><path class="cls-12_seo-92 targetColor" d="M136.87,326.51c-.11,1.3.86,2.44,2.16,2.55.11,0,.23.01.34,0,.7.02,1.4-.11,2.04-.38l.23.96c-.78.33-1.61.48-2.45.46-2.27,0-3.63-1.49-3.63-3.72s1.32-3.95,3.46-3.95c2.41,0,3.04,2.12,3.04,3.47,0,.21-.02.42-.04.62l-5.15-.02ZM140.81,325.55c0-.85-.36-2.18-1.86-2.18-1.35,0-1.97,1.24-2.06,2.18h3.92Z" style="fill: rgb(0, 204, 143);"/><path class="cls-12_seo-92 targetColor" d="M147.8,329.95l-.11-.93h-.05c-.53.71-1.37,1.12-2.26,1.1-1.16.08-2.17-.79-2.25-1.95,0-.06,0-.11,0-.17,0-1.78,1.58-2.75,4.43-2.74v-.14c.11-.83-.47-1.6-1.31-1.71-.12-.02-.24-.02-.36,0-.68,0-1.34.19-1.92.55l-.31-.89c.73-.44,1.57-.67,2.43-.66,2.26,0,2.8,1.54,2.8,3.01v2.76c-.01.59.03,1.18.12,1.76h-1.22ZM147.6,326.18c-1.46-.03-3.12.23-3.12,1.66-.05.65.43,1.22,1.08,1.27.06,0,.12,0,.18,0,.8.02,1.52-.47,1.78-1.23.05-.14.07-.28.08-.43v-1.28Z" style="fill: rgb(0, 204, 143);"/><path class="cls-12_seo-92 targetColor" d="M151.06,324.88c0-.87,0-1.62-.06-2.3h1.17l.05,1.45h.06c.26-.92,1.09-1.57,2.04-1.61.13,0,.26.01.38.05v1.26c-.15-.03-.31-.05-.46-.05-.95.04-1.72.78-1.8,1.72-.04.21-.06.42-.06.62v3.95h-1.32v-5.09Z" style="fill: rgb(0, 204, 143);"/><path class="cls-12_seo-92 targetColor" d="M161.14,329.68c-.67.3-1.39.44-2.12.43-2.22,0-3.67-1.51-3.67-3.77-.1-2.06,1.5-3.82,3.56-3.91.13,0,.26,0,.38,0,.64,0,1.27.12,1.86.38l-.31,1.04c-.48-.25-1.01-.38-1.55-.36-1.69,0-2.63,1.25-2.63,2.79-.13,1.39.9,2.62,2.29,2.75.09,0,.18.01.27.01.57,0,1.13-.13,1.64-.37l.27,1.01Z" style="fill: rgb(0, 204, 143);"/><path class="cls-12_seo-92 targetColor" d="M162.7,319.14h1.32v4.6h0c.23-.4.56-.72.96-.95.42-.24.89-.37,1.37-.37.99,0,2.57.6,2.57,3.15v4.39h-1.32v-4.23c0-1.18-.44-2.19-1.7-2.19-.82.01-1.54.54-1.8,1.32-.08.21-.11.43-.09.66v4.44h-1.32v-10.81Z" style="fill: rgb(0, 204, 143);"/></g><path class="cls-12_seo-92 targetColor" d="M383.28,319.68v11.84c.01,3.39-1.59,6.59-4.31,8.61h-31.56v-30.5h29c4.15,1.62,6.88,5.61,6.88,10.06Z" style="fill: rgb(0, 204, 143);"/><path class="cls-11_seo-92" d="M361.33,330.93c-5.13,0-9.29-4.15-9.3-9.28s4.15-9.29,9.28-9.3c5.13,0,9.29,4.15,9.3,9.28h0c-.01,5.14-4.16,9.29-9.28,9.3ZM361.33,314.93c-3.7,0-6.71,3-6.71,6.7,0,3.7,3,6.71,6.7,6.71s6.71-3,6.71-6.7h0c0-3.71-3-6.71-6.7-6.71Z"/><rect class="cls-11_seo-92" x="367.39" y="326.21" width="2.79" height="9.94" transform="translate(-125.91 300.19) rotate(-38.34)"/><rect class="cls-10_seo-92 targetColor" x="171.7" y="314.68" width=".99" height="19.38" style="fill: rgb(0, 204, 143);"/></g><g id="rocket_seo-92"><path class="cls-12_seo-92 targetColor" d="M365.02,227.45c-.56,6.97-2.1,12.01-4.6,15.12-3.23,4-7.79,6-13.69,6.01-5.7,0-10.23-2.05-13.58-6.14-3.29-4.08-4.95-10.7-4.98-19.94.39-1.72.87-3.41,1.43-5.08,2.41-1.38,4.47-3.29,6.04-5.59,2.31-3.41,3.5-7.59,6.38-10.52.98-.98,2.12-1.83,2.83-3,.45-.76.73-1.61.82-2.49.24-1.75-.05-3.66-.08-5.46-.03-3.3.87-6.53,2.59-9.34,5.48.08,10.88,2.56,16.26,3.54,2.35,3.95-1.75,9.03-.61,13.51.4,1.59,1.46,2.94,1.91,4.53.74,2.7-.39,5.35-1.51,8.05-.52,1.21-.94,2.46-1.28,3.73-1.05,4.35.33,8.81,2.06,13.06Z" style="fill: rgb(0, 204, 143);"/><path class="cls-3_seo-92" d="M365.02,227.45c-.56,6.97-2.1,12.01-4.6,15.12-3.23,4-7.79,6-13.69,6.01-5.7,0-10.23-2.05-13.58-6.14-3.29-4.08-4.95-10.7-4.98-19.94.39-1.72.87-3.41,1.43-5.08,2.41-1.38,4.47-3.29,6.04-5.59,2.31-3.41,3.5-7.59,6.38-10.52.98-.98,2.12-1.83,2.83-3,.45-.76.73-1.61.82-2.49.24-1.75-.05-3.66-.08-5.46-.03-3.3.87-6.53,2.59-9.34,5.48.08,10.88,2.56,16.26,3.54,2.35,3.95-1.75,9.03-.61,13.51.4,1.59,1.46,2.94,1.91,4.53.74,2.7-.39,5.35-1.51,8.05-.52,1.21-.94,2.46-1.28,3.73-1.05,4.35.33,8.81,2.06,13.06Z"/><path class="cls-4_seo-92" d="M361.66,229.16c-.44,6.97-1.59,12.01-3.45,15.12-2.42,4-5.83,6.02-10.26,6.02s-7.68-2.05-10.18-6.15c-2.46-4.08-3.71-10.7-3.73-19.94.29-1.75.65-3.45,1.07-5.08,1.9-1.51,3.44-3.42,4.52-5.59,1.72-3.42,2.63-7.6,4.78-10.52.81-.92,1.52-1.92,2.12-2.99.34-.79.55-1.63.61-2.49.08-1.82.06-3.64-.06-5.45-.03-3.22.64-6.41,1.97-9.35,4.1.08,8.15,2.57,12.18,3.55,1.77,3.95-1.32,9.03-.45,13.51.3,1.58,1.09,2.94,1.43,4.52.56,2.7-.3,5.35-1.13,8.05-.39,1.22-.7,2.47-.95,3.73-.8,4.35.24,8.82,1.53,13.06Z"/><path class="cls-2_seo-92" d="M348.35,203.4l.85-.95c.13,4.95-1.5,9.78-4.6,13.64-1.43,1.76-3.2,3.39-3.75,5.6,5.88-3.88,9.95-9.98,11.28-16.9.46-2.44.66-5.11,2.21-7.04l.32,3.36c1.35-2.6,2.53-5.29,3.53-8.05.2-.53.36-1.22-.07-1.59-.24-.17-.54-.27-.84-.27-2.63-.26-5.55-1.13-6.9,1.54-1.55,3.06-1.9,7.3-2.03,10.66Z"/><path class="cls-12_seo-92 targetColor" d="M347.13,182.75s-.37,5.4.66,6.99,8.02,4.66,10.72,3.29c1.69-.9,3.24-2.06,4.57-3.45l1.36-5-17.31-1.83Z" style="fill: rgb(0, 204, 143);"/><path class="cls-8_seo-92" d="M347.13,182.75s-.37,5.4.66,6.99,8.02,4.66,10.72,3.29c1.69-.9,3.24-2.06,4.57-3.45l1.36-5-17.31-1.83Z"/><path class="cls-12_seo-92 targetColor" d="M345.67,174.02s2.98-40.77,18.88-45.23c15.91-4.46,1.97,54.18,1.97,54.18,0,0-20.86,15.91-20.86-8.95Z" style="fill: rgb(0, 204, 143);"/><path class="cls-9_seo-92" d="M345.67,174.02s2.98-40.77,18.88-45.23c15.91-4.46,1.97,54.18,1.97,54.18,0,0-20.86,15.91-20.86-8.95Z"/><path class="cls-12_seo-92 targetColor" d="M343.79,166.82c-3.65,3.47-7.44,7.14-8.96,11.94-1.14,3.57-.89,7.41-.66,11.18.07,1.01.28,2.22,1.22,2.58,1.07.41,2.1-.62,2.75-1.55,2.21-3.17,4.07-6.7,7.13-9.05.54-.36,1.02-.8,1.41-1.32.4-.75.58-1.6.53-2.45.17-4.67.49-9.42.51-14.05-1.56.41-2.74,1.57-3.95,2.73Z" style="fill: rgb(0, 204, 143);"/><path class="cls-7_seo-92" d="M343.79,166.82c-3.65,3.47-7.44,7.14-8.96,11.94-1.14,3.57-.89,7.41-.66,11.18.07,1.01.28,2.22,1.22,2.58,1.07.41,2.1-.62,2.75-1.55,2.21-3.17,4.07-6.7,7.13-9.05.54-.36,1.02-.8,1.41-1.32.4-.75.58-1.6.53-2.45.17-4.67.49-9.42.51-14.05-1.56.41-2.74,1.57-3.95,2.73Z"/><path class="cls-12_seo-92 targetColor" d="M372.39,171.06c2.73,4.23,5.54,8.71,5.88,13.72.26,3.74-.89,7.42-2.03,10.99-.3.96-.8,2.08-1.79,2.22-1.14.14-1.9-1.1-2.31-2.16-1.39-3.6-2.37-7.47-4.78-10.48-.44-.47-.8-1.01-1.06-1.59-.2-.83-.18-1.69.06-2.51.94-4.6,1.76-9.26,2.83-13.81,1.44.82,2.3,2.22,3.2,3.63Z" style="fill: rgb(0, 204, 143);"/><path class="cls-5_seo-92" d="M372.37,171.18c2.72,4.23,5.53,8.7,5.87,13.72.26,3.73-.89,7.41-2.03,10.99-.3.96-.8,2.08-1.79,2.21-1.13.14-1.9-1.1-2.31-2.16-1.39-3.6-2.37-7.46-4.77-10.47-.44-.47-.8-1-1.06-1.59-.21-.83-.19-1.69.05-2.51.94-4.6,1.76-9.27,2.83-13.81,1.45.82,2.3,2.22,3.21,3.63Z"/><circle class="cls-12_seo-92 targetColor" cx="361.34" cy="155.39" r="4.71" style="fill: rgb(0, 204, 143);"/><circle class="cls-6_seo-92" cx="361.31" cy="155.38" r="3.83"/></g></svg>